<svg width="262" height="226" viewBox="0 0 262 226" fill="none" xmlns="http://www.w3.org/2000/svg">
<rect width="261.04" height="226" fill="white"/>
<g clip-path="url(#clip0_7617_51620)">
<rect width="181.04" height="146" transform="translate(40 40)" fill="white"/>
<path d="M106.789 184.961C113.627 184.809 117.264 184.443 117.702 183.861C119.145 181.941 117.778 157.859 119.795 156.789C120.123 156.615 121.14 156.463 122.847 156.331M161.303 155.573C162.399 155.574 163.529 155.575 164.693 155.576M68.3945 184.577C69.0743 184.591 69.7426 184.606 70.3997 184.619L68.3945 184.577ZM72.5873 184.665C83.1261 184.885 90.5003 185.006 94.7099 185.03L72.5873 184.665ZM139.34 155.526C143.085 155.544 149.24 155.558 157.806 155.569L139.34 155.526Z" stroke="#8B93B0" stroke-width="0.584" stroke-linecap="round" stroke-linejoin="round"/>
<g style="mix-blend-mode:multiply">
<path fill-rule="evenodd" clip-rule="evenodd" d="M129.627 51.7959C100.735 54.5354 71.9003 109.341 83.8106 136.366C95.7208 163.391 174.639 164.96 187.538 134.918C200.436 104.876 158.519 49.0564 129.627 51.7959Z" fill="#F5F7FD"/>
</g>
<path fill-rule="evenodd" clip-rule="evenodd" d="M181.63 162.701C178.765 162.397 176.573 160.895 176.734 159.345C176.85 158.231 178.151 157.395 179.938 157.127C180.636 157.022 181.409 157.003 182.214 157.089C183.075 157.18 183.875 157.379 184.568 157.656C186.183 158.3 187.222 159.361 187.109 160.445C186.948 161.995 184.495 163.005 181.63 162.701Z" fill="#FEE9C0"/>
<path fill-rule="evenodd" clip-rule="evenodd" d="M184.717 158.295C181.508 157.98 178.42 158.829 177.995 160.089C177.57 161.348 179.052 163.158 182.742 162.804C186.433 162.45 187.926 158.609 184.717 158.295Z" fill="#FFC967"/>
<path d="M178.795 157.317C176.967 157.847 175.731 158.872 175.751 160.028C175.781 161.68 178.368 162.976 181.531 162.921C184.693 162.867 187.233 161.483 187.204 159.83C187.183 158.642 185.839 157.638 183.911 157.188" stroke="#2A2F54" stroke-width="0.584" stroke-linecap="round" stroke-linejoin="round"/>
<path fill-rule="evenodd" clip-rule="evenodd" d="M182.277 111.697L182.264 158.249C182.264 158.652 181.876 158.979 181.397 158.979C180.919 158.979 180.531 158.653 180.531 158.25C180.531 158.25 180.531 158.25 180.531 158.25L180.543 111.514" fill="#FEE9C0"/>
<path d="M182.277 111.697L182.264 158.249C182.264 158.652 181.876 158.979 181.397 158.979C180.919 158.979 180.531 158.653 180.531 158.25C180.531 158.25 180.531 158.25 180.531 158.25L180.543 111.514" stroke="#2A2F54" stroke-width="0.584" stroke-linecap="round"/>
<path d="M181.553 110.622C182.659 110.622 183.555 109.726 183.555 108.62C183.555 107.514 182.659 106.618 181.553 106.618C180.447 106.618 179.551 107.514 179.551 108.62C179.551 109.726 180.447 110.622 181.553 110.622Z" fill="white"/>
<path d="M181.887 110.622C182.9 110.622 183.722 109.801 183.722 108.787C183.722 107.773 182.9 106.951 181.887 106.951C180.873 106.951 180.051 107.773 180.051 108.787C180.051 109.801 180.873 110.622 181.887 110.622Z" fill="#FEE9C0"/>
<path fill-rule="evenodd" clip-rule="evenodd" d="M180.719 109.979C180.708 109.296 182.452 107.619 182.902 107.619C183.353 107.619 183.706 108.963 182.94 109.979C182.174 110.995 180.73 110.662 180.719 109.979Z" fill="#FFC967"/>
<path d="M181.575 110.768C180.355 110.789 179.348 109.815 179.327 108.592C179.306 107.37 180.277 106.361 181.497 106.34C182.717 106.319 183.723 107.292 183.745 108.515C183.766 109.738 182.794 110.746 181.575 110.768Z" stroke="#2A2F54" stroke-width="0.584"/>
<path fill-rule="evenodd" clip-rule="evenodd" d="M161.668 115.698C165.088 116.944 168.316 117.006 171.352 115.885C176.222 114.087 177.65 111.376 178.325 111.028C178.657 110.857 179.065 110.987 179.236 111.319C179.352 111.543 179.333 111.813 179.188 112.019C177.58 114.301 175.073 116.013 171.667 117.155C166.361 118.936 162.431 117.295 161.239 116.788C160.941 116.662 160.802 116.318 160.929 116.02C161.051 115.733 161.376 115.592 161.668 115.698L161.668 115.698Z" fill="white"/>
<path fill-rule="evenodd" clip-rule="evenodd" d="M161.571 116.092C164.99 117.374 168.235 117.497 171.306 116.46C176.222 114.801 177.698 112.187 178.382 111.861C178.717 111.701 179.119 111.842 179.279 112.178C179.387 112.405 179.36 112.674 179.207 112.874C177.557 115.049 175.021 116.659 171.602 117.703C166.248 119.338 162.33 117.668 161.142 117.152C160.852 117.027 160.719 116.69 160.845 116.4C160.966 116.12 161.285 115.985 161.571 116.092L161.571 116.092Z" fill="#F77272"/>
<path fill-rule="evenodd" clip-rule="evenodd" d="M161.668 115.698C165.088 116.944 168.316 117.006 171.352 115.885C176.222 114.087 177.65 111.376 178.325 111.028C178.657 110.857 179.065 110.987 179.236 111.319C179.352 111.543 179.333 111.813 179.188 112.019C177.58 114.301 175.073 116.013 171.667 117.155C166.361 118.936 162.431 117.295 161.239 116.788C160.941 116.662 160.802 116.318 160.929 116.02C161.051 115.733 161.376 115.592 161.668 115.698L161.668 115.698Z" stroke="#2A2F54" stroke-width="0.584" stroke-linecap="round" stroke-linejoin="round"/>
<path fill-rule="evenodd" clip-rule="evenodd" d="M158.751 152.7C156.773 152.488 155.26 151.44 155.371 150.358C155.451 149.581 156.349 148.998 157.583 148.81C158.065 148.737 158.598 148.724 159.154 148.784C159.749 148.847 160.301 148.987 160.78 149.18C161.895 149.629 162.613 150.369 162.535 151.126C162.423 152.207 160.729 152.912 158.751 152.7Z" fill="#FEE9C0"/>
<path fill-rule="evenodd" clip-rule="evenodd" d="M160.882 149.625C158.667 149.406 156.534 149.998 156.241 150.877C155.947 151.756 156.971 153.019 159.519 152.772C162.067 152.525 163.098 149.844 160.882 149.625Z" fill="#FFC967"/>
<path d="M156.794 148.943C155.532 149.313 154.678 150.028 154.692 150.834C154.712 151.988 156.499 152.892 158.683 152.854C160.866 152.816 162.62 151.85 162.6 150.696C162.585 149.867 161.658 149.167 160.326 148.853" stroke="#2A2F54" stroke-width="0.584" stroke-linecap="round" stroke-linejoin="round"/>
<path fill-rule="evenodd" clip-rule="evenodd" d="M159.198 117.109L159.189 149.593C159.189 149.875 158.921 150.103 158.591 150.103C158.26 150.103 157.992 149.875 157.992 149.594C157.992 149.594 157.992 149.594 157.992 149.594L158.001 116.982" fill="#FEE9C0"/>
<path d="M159.198 117.109L159.189 149.593C159.189 149.875 158.921 150.103 158.591 150.103C158.26 150.103 157.992 149.875 157.992 149.594C157.992 149.594 157.992 149.594 157.992 149.594L158.001 116.982" stroke="#2A2F54" stroke-width="0.584" stroke-linecap="round"/>
<path d="M158.698 116.275C159.458 116.275 160.074 115.658 160.074 114.898C160.074 114.138 159.458 113.521 158.698 113.521C157.938 113.521 157.321 114.138 157.321 114.898C157.321 115.658 157.938 116.275 158.698 116.275Z" fill="white"/>
<path d="M158.927 116.275C159.624 116.275 160.189 115.71 160.189 115.013C160.189 114.316 159.624 113.751 158.927 113.751C158.23 113.751 157.666 114.316 157.666 115.013C157.666 115.71 158.23 116.275 158.927 116.275Z" fill="#FEE9C0"/>
<path fill-rule="evenodd" clip-rule="evenodd" d="M158.125 115.832C158.117 115.363 159.316 114.21 159.626 114.21C159.935 114.21 160.178 115.134 159.651 115.832C159.125 116.531 158.132 116.302 158.125 115.832Z" fill="#FFC967"/>
<path d="M158.713 116.375C157.874 116.389 157.182 115.72 157.168 114.879C157.153 114.038 157.821 113.345 158.66 113.33C159.498 113.316 160.19 113.985 160.205 114.826C160.219 115.667 159.551 116.36 158.713 116.375Z" stroke="#2A2F54" stroke-width="0.584"/>
<path fill-rule="evenodd" clip-rule="evenodd" d="M93.9374 171.028C93.5065 171.715 93.1923 172.217 92.9947 172.534C90.5321 176.49 89.3008 178.647 89.3008 179.006C89.3008 179.609 94.1703 183.144 96.542 184.184C98.5211 185.052 105.751 185.052 105.116 184.184C103.688 182.232 99.8086 181.151 97.9674 179.006C96.8718 177.73 96.9465 175.961 98.1913 173.699C98.2913 173.517 98.4582 173.238 98.692 172.86L93.9374 171.028Z" fill="white"/>
<path fill-rule="evenodd" clip-rule="evenodd" d="M94.0202 171.893C93.6062 171.893 91.9964 173.168 94.0202 173.749C96.0439 174.331 97.193 174.106 97.5242 174.106C98.1082 174.106 98.6245 173.169 98.1082 172.831C97.5919 172.492 94.4582 171.893 94.0202 171.893Z" fill="#FFE0CB"/>
<path fill-rule="evenodd" clip-rule="evenodd" d="M93.8122 171.791C93.4795 171.988 93.0783 172.469 93.3031 172.999C93.5279 173.529 94.2129 174.016 94.69 173.861C95.1672 173.705 95.8109 172.776 95.4821 172.235C95.1532 171.695 94.1448 171.594 93.8122 171.791Z" fill="#FFB583"/>
<path d="M92.9947 172.534C90.5321 176.49 89.3008 178.647 89.3008 179.006C89.3008 179.609 94.1703 183.144 96.542 184.184C98.5211 185.052 104.839 185.174 105.007 184.184C105.292 182.496 101.03 181.426 98.7567 179.725M97.3254 175.843C97.4776 175.186 97.7662 174.471 98.1913 173.699" stroke="#2A2F54" stroke-width="0.584" stroke-linecap="round"/>
<path d="M100.006 183.373C100.245 183.004 100.484 182.739 100.723 182.576C100.961 182.414 101.161 182.299 101.32 182.233" stroke="#2A2F54" stroke-width="0.584" stroke-linecap="round"/>
<path d="M90.5161 178.408C93.8746 181.027 96.0709 182.534 97.1051 182.93C98.1394 183.325 100.011 183.531 102.719 183.546" stroke="#2A2F54" stroke-width="0.584" stroke-linecap="round"/>
<path d="M93.4116 173.444C93.8774 173.769 94.3507 173.973 94.8316 174.055C95.3125 174.137 96.032 174.137 96.9901 174.055" stroke="#2A2F54" stroke-width="0.584" stroke-linecap="round"/>
<path fill-rule="evenodd" clip-rule="evenodd" d="M90.8224 178.037C90.5304 177.538 92.8885 174.082 93.1501 173.863C93.2826 173.752 93.8921 174.157 94.5628 174.32C95.2157 174.478 96.2333 174.41 96.356 174.587C96.6047 174.947 95.7172 176.412 96.94 178.291C98.1628 180.17 100.034 180.805 100.444 181.495C100.854 182.185 100.104 182.832 98.419 182.727C96.7343 182.623 91.1144 178.536 90.8224 178.037Z" fill="#E9EDFF"/>
<path d="M96.064 178.408L97.524 177.931" stroke="#2A2F54" stroke-width="0.584" stroke-linecap="round"/>
<path d="M96.9399 179.629L98.0103 178.992" stroke="#2A2F54" stroke-width="0.584" stroke-linecap="round"/>
<path fill-rule="evenodd" clip-rule="evenodd" d="M90.8223 177.81C90.8223 177.268 92.4717 174.345 92.9096 174.014C93.3475 173.682 94.718 174.33 94.9942 174.681C95.1168 174.837 94.8132 176.063 94.8684 177.338C94.9374 178.934 95.3132 180.636 94.8684 180.744C94.0683 180.937 90.8223 178.352 90.8223 177.81Z" fill="#CECFFF"/>
<path fill-rule="evenodd" clip-rule="evenodd" d="M125.898 147.731C124.312 151.796 123.678 153.3 123.811 153.759C123.992 154.386 132.169 155.776 133.349 154.063C134.714 152.081 131.412 153.196 130.171 150.956C129.572 149.874 129.504 148.489 129.504 147.999C129.504 147.747 128.549 148.055 127.646 147.999C126.788 147.946 125.981 147.517 125.898 147.731Z" fill="#E9EDFF"/>
<path fill-rule="evenodd" clip-rule="evenodd" d="M126.284 146.046C126.082 146.046 125.823 147.468 126.011 147.78C126.144 148.001 128.675 148.392 129.251 148.179C129.828 147.965 130.057 146.692 129.773 146.55C129.488 146.408 126.504 146.046 126.284 146.046Z" fill="#FFE0CB"/>
<path fill-rule="evenodd" clip-rule="evenodd" d="M126.279 145.797C126.029 145.994 125.729 146.475 125.897 147.005C126.066 147.535 126.579 148.022 126.937 147.867C127.295 147.712 127.777 146.782 127.531 146.242C127.284 145.701 126.528 145.6 126.279 145.797Z" fill="#FFB583"/>
<path fill-rule="evenodd" clip-rule="evenodd" d="M125.853 148.387C126.254 147.893 127.151 147.896 128.055 148.801C128.959 149.706 128.507 150.907 129.034 151.573C129.176 151.753 129.411 151.979 129.739 152.25C130.221 152.648 131.454 153.144 131.785 153.74C132.117 154.335 132.123 154.838 131.137 154.837C130.15 154.835 125.553 155.319 124.331 153.804C123.109 152.289 125.452 148.882 125.853 148.387Z" fill="#CECFFF"/>
<path fill-rule="evenodd" clip-rule="evenodd" d="M125.784 148.028C125.996 147.616 126.768 148.016 127.07 148.574C127.372 149.132 126.717 154.046 126.319 154.504C125.921 154.962 124.012 154.676 123.761 153.994C123.511 153.312 125.573 148.44 125.784 148.028Z" fill="#9EB2FF"/>
<path d="M125.632 147.872C123.925 152.24 123.135 154.643 123.261 155.08C123.481 155.842 137.587 156.454 137.587 155.334C137.587 154.215 136.002 153.514 134.608 153.04C132.617 152.362 130.958 152.245 130.228 150.927C129.815 150.181 129.978 149.313 130.06 148.35" stroke="#2A2F54" stroke-width="0.584" stroke-linecap="round" stroke-linejoin="round"/>
<path d="M126.724 152.888C127.369 152.888 127.892 152.365 127.892 151.72C127.892 151.075 127.369 150.552 126.724 150.552C126.079 150.552 125.556 151.075 125.556 151.72C125.556 152.365 126.079 152.888 126.724 152.888Z" fill="white" stroke="#2A2F54" stroke-width="0.584"/>
<path d="M124.096 154.074C126.319 154.473 128.092 154.711 129.413 154.791C130.734 154.87 132.682 154.897 135.255 154.874" stroke="#2A2F54" stroke-width="0.584" stroke-linecap="round"/>
<path d="M133.527 154.474L133.728 153.88" stroke="#2A2F54" stroke-width="0.584" stroke-linecap="round"/>
<path fill-rule="evenodd" clip-rule="evenodd" d="M124.418 121.468C136.501 118.353 143.386 118.645 145.073 122.344C147.602 127.892 132.856 146.038 131.535 146.726C130.655 147.184 128.37 146.974 124.68 146.096C125.868 140.297 127.523 136.145 129.644 133.64C131.765 131.135 133.902 129.219 136.056 127.892L124.68 131.006C118.888 145.746 115.557 153.7 114.688 154.868C113.818 156.036 108.876 162.034 99.8601 172.86L91.3921 171.028C93.6183 165.095 96.0516 160.291 98.6921 156.616C102.653 151.103 105.129 150.619 107.35 148.332C108.831 146.807 110.909 138.729 113.584 124.096L124.418 121.468Z" fill="white"/>
<path fill-rule="evenodd" clip-rule="evenodd" d="M123.519 121.872C135.464 118.488 142.261 118.645 143.911 122.344C146.386 127.892 131.959 146.038 130.667 146.725C129.805 147.184 127.569 146.974 123.96 146.096C125.122 140.297 126.741 136.145 128.816 133.64C130.891 131.135 132.982 129.219 135.089 127.892L123.96 131.006C118.283 145.44 115.019 153.242 114.168 154.41C113.318 155.578 108.487 161.728 99.6768 172.86L91.3921 171.028C93.5701 165.095 95.9508 160.291 98.5341 156.616C102.409 151.103 104.831 150.619 107.004 148.332C108.453 146.807 110.486 138.729 113.104 124.096L123.519 121.872Z" fill="#CDD4FF"/>
<path fill-rule="evenodd" clip-rule="evenodd" d="M125.264 131.007C124.122 130.841 123.998 128.599 128.047 126.872C132.095 125.144 139.572 125.231 139.572 126.872C139.572 128.512 128.882 145.367 128.476 145.711C128.07 146.056 125.71 146.862 125.012 145.711C124.313 144.561 125.474 140.335 128.476 135.437C130.477 132.172 133.056 129.711 136.214 128.054C129.675 130.132 126.025 131.117 125.264 131.007Z" fill="#A8BDFF"/>
<path fill-rule="evenodd" clip-rule="evenodd" d="M95.1731 171.113C97.4703 169.802 109.754 152.923 111.134 149.369C112.514 145.814 117.672 126.463 117.672 124.382C117.672 122.3 113.535 123.357 112.965 124.382C112.394 125.407 108.36 144.556 106.519 148.111C104.678 151.666 101.192 151.392 97.0988 157.525C93.0059 163.657 91.6065 167.844 91.3079 169.952C91.0092 172.059 92.8758 172.423 95.1731 171.113Z" fill="#A8BDFF"/>
<path d="M130.355 120.133C138.779 118.564 143.685 119.301 145.072 122.344C147.602 127.892 132.578 146.797 131.135 147.141C129.692 147.484 125.264 146.707 124.68 146.096C124.096 145.485 126.462 137.397 129.644 133.64C132.825 129.883 135.388 128.209 134.316 128.456C133.243 128.704 125.461 130.712 124.632 131.49C123.804 132.268 115.992 153.116 114.688 154.868C113.383 156.62 102.35 171.05 100.736 172.282C99.1214 173.513 91.4834 171.617 91.4834 170.753C91.4834 169.888 94.7311 162.129 98.6918 156.616C102.653 151.103 105.128 150.619 107.35 148.332C108.788 146.851 110.79 139.187 113.355 125.339" stroke="#2A2F54" stroke-width="0.584" stroke-linecap="round" stroke-linejoin="round"/>
<path d="M114.349 75.8035C116.193 74.2563 116.434 71.5072 114.887 69.6633C113.339 67.8194 110.59 67.5789 108.746 69.1261C106.903 70.6733 106.662 73.4224 108.209 75.2663C109.756 77.1102 112.506 77.3507 114.349 75.8035Z" fill="white" stroke="#CCD1E4" stroke-width="0.584"/>
<path fill-rule="evenodd" clip-rule="evenodd" d="M110.064 73.0618C110.187 72.711 110.732 72.7461 110.88 72.5415C111.029 72.337 111.051 71.716 111.374 71.4847C111.698 71.2534 112.266 71.6753 112.711 71.5561C113.156 71.437 113.101 70.9492 113.501 71.0651C113.901 71.1811 114.05 72.3687 113.991 72.7855C113.933 73.2024 111.937 74.6837 111.36 74.4177C110.782 74.1517 110.021 73.1841 110.064 73.0618Z" fill="#FFDD7F"/>
<path fill-rule="evenodd" clip-rule="evenodd" d="M109.228 72.5646C109.298 72.3769 110.388 72.5987 110.471 72.415C110.553 72.2314 110.682 71.0861 110.891 70.9411C111.101 70.796 112.171 71.5487 112.394 71.5491C112.617 71.5495 113.08 70.6062 113.248 70.7546C113.359 70.8535 113.647 72.1293 113.531 72.5573C113.416 72.9853 111.143 74.4175 110.577 74.1138C110.011 73.8102 109.181 72.6898 109.228 72.5646Z" stroke="#2A2F54" stroke-width="0.584"/>
<path fill-rule="evenodd" clip-rule="evenodd" d="M107.783 117.595C105.613 112.94 111.811 100.008 113.654 97.7267C114.189 97.0653 114.857 96.8917 115.533 97.0841C117.041 95.7492 118.143 94.9907 118.84 94.8086C121.044 94.2328 123.531 94.3385 124.68 93.728C126.432 92.7975 128.768 86.5694 129.352 84.8521C129.936 83.1348 131.104 71.0798 131.98 70.2291C132.856 69.3784 135.565 70.5569 136.214 71.3241C136.473 71.631 136.374 73.6596 136.12 76.1692C135.739 79.9325 135.011 84.7772 134.628 86.5195C133.989 89.4236 129.813 98.4 129.657 99.9631C129.553 101.005 129.451 107.635 129.352 119.853L113.584 124.096L113.81 119.978C111.022 119.96 108.595 119.337 107.783 117.595Z" fill="#FFC697"/>
<path fill-rule="evenodd" clip-rule="evenodd" d="M134.178 76.2075C134.054 76.608 132.147 84.6673 131.78 86.3283C131.319 88.4154 130.415 92.0575 130.142 93.6164C129.87 95.1753 130.301 97.4533 130.629 96.6693C130.957 95.8852 132.985 90.9098 134.052 86.6448C135.12 82.3797 135.358 78.2352 135.412 77.2044C135.466 76.1736 134.471 75.2587 134.178 76.2075Z" fill="#FFB599"/>
<path d="M136.019 77.1198C135.621 80.7103 134.979 84.9208 134.628 86.5195C133.989 89.4236 129.813 98.4 129.657 99.9631C129.606 100.473 129.556 104.697 129.536 109.083M129.546 117.19C129.559 118.241 129.643 119.263 129.352 119.678C128.639 120.694 114.402 124.785 113.111 123.804C112.846 123.603 112.706 122.626 112.69 120.873M115.661 96.2418C116.241 95.7739 116.747 95.4171 117.18 95.1713M124.68 93.728C126.432 92.7974 128.768 86.5694 129.352 84.8521C129.936 83.1347 131.104 71.0798 131.98 70.2291C132.112 70.1006 132.286 70.0184 132.489 69.9741" stroke="#2A2F54" stroke-width="0.584" stroke-linecap="round"/>
<path fill-rule="evenodd" clip-rule="evenodd" d="M116.865 107.142C115.681 108.631 114.882 110.867 114.362 113.121C114.037 114.53 123.645 111.41 123.512 112.654C123.427 113.446 125.654 116.366 124.365 117.347C121.709 119.367 113.422 120.047 113.461 120.36C113.889 123.873 128.517 119.808 128.904 118.271C129.292 116.733 120.295 102.827 116.865 107.142Z" fill="#FFA683"/>
<path fill-rule="evenodd" clip-rule="evenodd" d="M133.732 70.2291C133.382 68.537 133.48 66.7851 134.024 64.9734C134.841 62.2559 135.972 61.0885 136.562 61.0288C137.152 60.9691 138.066 63.5796 138.066 64.3432C138.066 65.1069 136.769 66.5379 136.214 67.7388C135.844 68.5393 135.524 69.4351 135.255 70.4261L133.732 70.2291Z" fill="#FFE8D6"/>
<path fill-rule="evenodd" clip-rule="evenodd" d="M136.798 62.5844C136.234 62.8156 135.73 64.9464 136.096 65.439C136.461 65.9315 138.089 65.2374 138.258 64.5523C138.427 63.8672 137.362 62.3533 136.798 62.5844Z" fill="#FFB583"/>
<path fill-rule="evenodd" clip-rule="evenodd" d="M126.574 112.155C128.46 111.356 129.794 110.96 130.026 110.959C130.374 110.959 130.209 111.704 129.746 112.155C129.588 112.31 129.345 112.516 129.048 112.638C129.713 112.651 130.655 112.835 131.069 112.979C132.266 113.394 133.735 113.743 134.044 114.868C134.354 115.993 131.282 117.465 129.146 116.696C127.011 115.928 127.122 115.787 126.432 115.92C125.743 116.052 125.38 116.358 124.614 116.134C123.848 115.909 123.382 114.736 123.658 114.117C123.933 113.497 124.688 112.955 126.574 112.155Z" fill="white"/>
<path fill-rule="evenodd" clip-rule="evenodd" d="M126.516 111.911C128.275 111.341 129.531 111.086 129.754 111.101C130.088 111.125 129.981 111.766 129.567 112.13C129.425 112.254 129.206 112.418 128.928 112.504C129.569 112.561 130.488 112.788 130.896 112.942C132.076 113.388 133.513 113.795 133.888 114.801C134.262 115.808 131.409 116.886 129.302 116.066C127.196 115.246 127.292 115.13 126.638 115.199C125.984 115.268 125.656 115.51 124.904 115.261C124.152 115.012 123.623 113.952 123.845 113.429C124.068 112.905 124.757 112.482 126.516 111.911Z" fill="#FFE0CB"/>
<path fill-rule="evenodd" clip-rule="evenodd" d="M131.582 113.717C130.34 113.957 129.441 115.202 129.486 115.779C129.531 116.356 130.012 116.621 131.513 116.33C133.014 116.039 133.494 115.504 133.636 114.926C133.778 114.348 132.823 113.476 131.582 113.717Z" fill="#FCC6A1"/>
<path d="M124.251 113.396C124.708 113.027 125.435 112.638 126.574 112.155C128.46 111.356 129.794 110.96 130.026 110.959C130.374 110.959 130.209 111.704 129.746 112.155C129.588 112.31 129.345 112.516 129.048 112.638C129.713 112.651 130.655 112.835 131.069 112.979C132.267 113.394 133.735 113.743 134.044 114.868C134.354 115.993 131.282 117.465 129.147 116.696C127.011 115.928 127.122 115.787 126.432 115.92C125.999 116.003 125.695 116.154 125.34 116.2" stroke="#2A2F54" stroke-width="0.584" stroke-linecap="round" stroke-linejoin="round"/>
<path fill-rule="evenodd" clip-rule="evenodd" d="M113.104 98.0254C113.522 97.2201 115.281 96.5071 114.258 99.5064C113.235 102.506 108.007 113.21 108.62 116.558C109.234 119.907 118.509 119.036 117.89 119.481C117.271 119.926 107.777 122.195 106.574 117.188C105.371 112.181 112.686 98.8308 113.104 98.0254Z" fill="#FFA683"/>
<path d="M123.278 112.249C120.827 111.962 114.775 113.228 113.934 113.204C113.149 113.181 116.59 108.482 118.146 104.417M114.657 97.0972C114.072 97.4624 113.556 97.9156 113.11 98.4568C111.238 100.726 105.259 112.687 107.24 117.352C109.22 122.018 121.908 118.881 123.625 117.955C124.388 117.544 124.783 117.277 124.574 116.652C124.365 116.027 123.545 116.092 123.318 115.107C123.166 114.45 123.198 113.845 123.413 113.292" stroke="#2A2F54" stroke-width="0.584" stroke-linecap="round"/>
<path fill-rule="evenodd" clip-rule="evenodd" d="M134.489 76.2536C133.628 75.9302 132.953 70.8195 133.625 69.1177C134.297 67.4159 143.81 63.9579 145.45 64.8136C147.09 65.6694 150.14 69.306 149.453 70.27C148.766 71.2341 135.35 76.5769 134.489 76.2536Z" fill="white"/>
<path fill-rule="evenodd" clip-rule="evenodd" d="M135.528 75.8755C134.676 75.549 133.986 70.4433 134.643 68.747C135.3 67.0508 144.686 63.639 146.311 64.5004C147.935 65.3618 150.965 69.0058 150.29 69.9655C149.615 70.9251 136.38 76.2021 135.528 75.8755Z" fill="#C3CEFF"/>
<path fill-rule="evenodd" clip-rule="evenodd" d="M146.715 67.5768C147.78 68.9957 147.956 70.8861 148.4 71.3411C148.844 71.7961 150.779 70.8061 150.686 69.5457C150.594 68.2853 148.851 66.1927 147.486 65.0482C146.121 63.9036 145.572 64.4347 145.14 64.7657C144.708 65.0967 145.651 66.158 146.715 67.5768Z" fill="#939CFF"/>
<path fill-rule="evenodd" clip-rule="evenodd" d="M136.52 70.2666C137.149 69.7284 143.47 67.5236 144.175 67.6293C144.88 67.735 145.818 69.6989 145.346 70.2331C144.874 70.7673 138.232 73.038 137.541 73.0737C136.851 73.1094 135.89 70.8047 136.52 70.2666Z" fill="white"/>
<path fill-rule="evenodd" clip-rule="evenodd" d="M136.675 70.008C137.302 69.4089 143.781 67.1661 144.523 67.3305C145.265 67.495 146.356 69.8645 145.893 70.4679C145.431 71.0712 138.62 73.3737 137.901 73.3767C137.182 73.3798 136.048 70.6072 136.675 70.008Z" stroke="#2A2F54" stroke-width="0.584" stroke-linecap="round"/>
<path d="M145.378 64.401C145.702 64.4002 145.959 64.4383 146.132 64.5221C147.853 65.3565 151.09 69.1907 150.343 70.1805C149.596 71.1704 135.2 76.6335 134.294 76.3229C133.388 76.0124 132.773 70.8497 133.518 69.113C133.633 68.8471 133.967 68.5355 134.458 68.2014" stroke="#2A2F54" stroke-width="0.584" stroke-linecap="round"/>
<path d="M138.214 71.5685C138.496 71.9285 138.813 72.0653 139.164 71.9791C139.691 71.8497 140.214 71.1241 140.196 70.5653C140.178 70.0065 139.172 69.7631 139.069 70.2839C138.967 70.8046 140.149 71.7372 140.93 71.3365C141.71 70.9357 141.299 69.7423 141.887 69.5283C142.475 69.3142 143.034 70.1193 143.612 69.9092C143.996 69.7691 144.205 69.3571 144.236 68.673" stroke="#2A2F54" stroke-width="0.584" stroke-linecap="round"/>
<path fill-rule="evenodd" clip-rule="evenodd" d="M128.105 52.5606C125.52 53.5061 124.087 54.1883 123.805 54.6074C123.364 55.2617 125.087 58.3093 127.004 59.0301C128.282 59.5107 129.79 59.3823 131.527 58.645L130.646 57.3251C129.308 57.8309 128.286 57.9422 127.58 57.6592C126.52 57.2346 125.556 55.8248 125.804 55.3643C125.97 55.0573 126.956 54.6388 128.762 54.1088L128.105 52.5606Z" fill="#FFF0D4"/>
<path fill-rule="evenodd" clip-rule="evenodd" d="M128.463 58.3473C128.243 58.7899 128.636 59.3149 129.078 59.442C129.519 59.569 130.123 59.3807 130.364 58.8946C130.606 58.4086 130.473 57.7619 129.984 57.6211C129.495 57.4804 128.684 57.9048 128.463 58.3473Z" fill="#FFDAA5"/>
<path fill-rule="evenodd" clip-rule="evenodd" d="M125.506 53.7878C125.286 54.2303 125.679 54.7554 126.12 54.8824C126.561 55.0094 127.165 54.8211 127.407 54.3351C127.649 53.849 127.515 53.2023 127.027 53.0615C126.538 52.9208 125.726 53.3452 125.506 53.7878Z" fill="#FFDAA5"/>
<path d="M126.133 53.3226C124.78 53.8826 124.004 54.3109 123.805 54.6074C123.364 55.2617 125.087 58.3093 127.004 59.0301C127.894 59.3647 128.895 59.4041 130.007 59.1483M128.448 57.8115C128.119 57.8101 127.83 57.7594 127.58 57.6592C126.52 57.2346 125.556 55.8248 125.804 55.3643C125.892 55.2022 126.208 55.0089 126.753 54.7845" stroke="#2A2F54" stroke-width="0.584" stroke-linecap="round"/>
<path fill-rule="evenodd" clip-rule="evenodd" d="M138.707 48.3744C140.932 47.2846 142.272 46.7867 142.726 46.8807C143.435 47.0275 144.41 50.2353 143.71 52.0029C143.244 53.1812 142.229 54.1022 140.665 54.7658L140.326 53.2867C141.307 52.8108 141.921 52.2413 142.167 51.578C142.537 50.5832 142.132 48.9955 141.671 48.8507C141.364 48.7541 140.488 49.1259 139.043 49.9661L138.707 48.3744Z" fill="#FFF0D4"/>
<path fill-rule="evenodd" clip-rule="evenodd" d="M140.173 52.9815C139.953 53.424 140.346 53.9491 140.787 54.0761C141.228 54.2032 141.832 54.0149 142.074 53.5288C142.316 53.0427 142.182 52.396 141.694 52.2553C141.205 52.1145 140.393 52.5389 140.173 52.9815Z" fill="#FFDAA5"/>
<path fill-rule="evenodd" clip-rule="evenodd" d="M138.713 48.3095C138.493 48.752 138.886 49.2771 139.327 49.4041C139.768 49.5312 140.372 49.3429 140.614 48.8568C140.856 48.3707 140.722 47.724 140.234 47.5833C139.745 47.4425 138.933 47.8669 138.713 48.3095Z" fill="#FFDAA5"/>
<path d="M139.986 47.7691C141.453 47.1025 142.367 46.8063 142.726 46.8807C143.435 47.0276 144.41 50.2353 143.71 52.0029C143.368 52.8676 142.731 53.5937 141.798 54.1812M141.563 52.4646C141.848 52.1904 142.05 51.8949 142.168 51.578C142.537 50.5832 142.132 48.9956 141.671 48.8507C141.512 48.8007 141.2 48.8763 140.736 49.0776" stroke="#2A2F54" stroke-width="0.584" stroke-linecap="round"/>
<path fill-rule="evenodd" clip-rule="evenodd" d="M136.355 65.6927C137.042 64.9985 140.629 63.4925 142.001 63.2963C143.372 63.1001 144.61 64.2867 143.968 65.0462C143.325 65.8056 137 68.3171 136.394 68.1155C135.788 67.9138 135.668 66.387 136.355 65.6927Z" fill="white"/>
<path fill-rule="evenodd" clip-rule="evenodd" d="M136.993 65.5334C137.569 64.8862 140.679 63.583 141.886 63.4565C143.092 63.33 144.247 64.5519 143.714 65.265C143.181 65.9782 137.691 68.1353 137.144 67.9087C136.597 67.6821 136.416 66.1805 136.993 65.5334Z" fill="#FFD993"/>
<path fill-rule="evenodd" clip-rule="evenodd" d="M139.07 64.8512C139.439 64.3323 141.593 63.433 142.457 63.4133C143.322 63.3937 144.249 64.5409 143.916 65.1203C143.584 65.6997 139.77 67.1625 139.357 66.9249C138.944 66.6873 138.701 65.37 139.07 64.8512Z" fill="#FFB34D"/>
<path d="M140.864 63.5566C141.307 63.417 141.7 63.3164 141.992 63.2752C143.364 63.0818 144.607 64.281 143.967 65.044C143.326 65.807 137 68.3172 136.393 68.1123C135.786 67.9073 135.66 66.3688 136.346 65.6716C136.582 65.4322 137.16 65.0973 137.872 64.7531" stroke="#2A2F54" stroke-width="0.584" stroke-linecap="round"/>
<path d="M137.385 66.3004C138.765 65.8473 139.845 65.4552 140.625 65.124C141.086 64.9286 141.634 64.6728 142.27 64.3566" stroke="#2A2F54" stroke-width="0.584" stroke-linecap="round"/>
<path fill-rule="evenodd" clip-rule="evenodd" d="M136.276 60.1184L138.158 59.3198C139.607 61.6312 140.215 62.9862 139.982 63.3848C139.632 63.9827 139.426 64.4615 138.475 64.2221C137.842 64.0625 137.109 62.6946 136.276 60.1184Z" fill="#FFD993"/>
<path d="M139.427 64.0005C138.837 64.3894 138.356 64.4042 137.986 64.0449C137.731 63.797 137.511 63.3323 137.326 62.6508" stroke="#2A2F54" stroke-width="0.584" stroke-linecap="round"/>
<path fill-rule="evenodd" clip-rule="evenodd" d="M126.925 51.6772C127.445 50.7817 137.253 46.3881 138.225 46.8806C139.198 47.3731 141.14 51.0261 141.009 54.2073C140.877 57.3884 139.997 59.2692 137.127 60.3868C134.256 61.5044 131.603 60.3604 129.814 58.1027C128.024 55.8449 126.405 52.5727 126.925 51.6772Z" fill="white"/>
<path fill-rule="evenodd" clip-rule="evenodd" d="M128.216 51.1293C128.654 50.269 137.386 46.3318 138.288 46.8541C139.19 47.3764 141.097 51.0448 141.101 54.168C141.106 57.2912 140.381 59.1064 137.819 60.0932C135.257 61.0801 132.803 59.8513 131.09 57.5611C129.377 55.2708 127.779 51.9896 128.216 51.1293Z" fill="#FFF0D4"/>
<path fill-rule="evenodd" clip-rule="evenodd" d="M132.413 49.6024C131.647 51.3044 132.215 59.8902 133.816 60.4317C135.418 60.9732 139.095 60.2761 140.204 57.0184C141.314 53.7607 140.261 49.4724 138.941 48.2645C137.621 47.0566 133.179 47.9004 132.413 49.6024Z" fill="#FFDAA5"/>
<path fill-rule="evenodd" clip-rule="evenodd" d="M136.744 47.8173C136.676 48.466 138.383 50.0681 139.204 53.1732C140.025 56.2784 139.211 58.2177 139.803 58.0552C140.396 57.8928 141.031 55.1447 140.826 53.1732C140.621 51.2017 139.287 47.7773 138.444 47.1687C137.6 46.56 136.811 47.1687 136.744 47.8173Z" fill="#FFB34D"/>
<path fill-rule="evenodd" clip-rule="evenodd" d="M126.925 51.6772C127.445 50.7817 137.253 46.3881 138.225 46.8806C139.198 47.3731 141.14 51.0261 141.009 54.2073C140.877 57.3884 139.997 59.2692 137.127 60.3868C134.256 61.5044 131.603 60.3604 129.814 58.1027C128.024 55.8449 126.405 52.5727 126.925 51.6772Z" stroke="#2A2F54" stroke-width="0.584" stroke-linecap="round"/>
<path d="M137.35 44.956L137.35 43.299" stroke="#FF83E4" stroke-width="0.584" stroke-linecap="round"/>
<path d="M138.952 45.4976L139.587 44.7521L140.222 44.0067M140.859 43.2639L141.282 42.7669" stroke="#7679FF" stroke-width="0.584" stroke-linecap="round"/>
<path fill-rule="evenodd" clip-rule="evenodd" d="M133.464 50.8439C133.11 50.9939 133.459 52.9682 133.088 53.353C132.718 53.7379 131.134 54.1009 131.133 54.6689C131.131 55.2369 132.733 55.2361 133.077 55.5574C133.421 55.8786 133.642 58.269 134.024 58.1546C134.405 58.0401 135.193 56.3098 135.694 56.0972C136.195 55.8846 138.257 56.5803 138.483 56.3136C138.709 56.0469 137.227 54.3664 137.219 54.0262C137.212 53.6859 138.191 51.9267 138.032 51.5518C137.873 51.1769 135.961 52.322 135.532 52.3155C135.104 52.3091 133.817 50.6939 133.464 50.8439Z" fill="white"/>
<path fill-rule="evenodd" clip-rule="evenodd" d="M134.64 53.4227C133.841 54.9248 133.694 57.3138 133.733 57.8374C133.771 58.3611 135.166 56.336 135.498 56.4314C135.83 56.5267 138.319 57.5496 138.728 56.852C139.138 56.1545 137.108 54.2459 137.045 53.7974C136.982 53.3488 137.861 52.0699 137.388 51.7856C136.916 51.5012 135.438 51.9207 134.64 53.4227Z" fill="#FFF0D4"/>
<path fill-rule="evenodd" clip-rule="evenodd" d="M133.464 50.8439C133.11 50.9939 133.459 52.9682 133.088 53.353C132.718 53.7379 131.134 54.1009 131.133 54.6689C131.131 55.2369 132.733 55.2361 133.077 55.5574C133.421 55.8786 133.642 58.269 134.024 58.1546C134.405 58.0401 135.193 56.3098 135.694 56.0972C136.195 55.8846 138.257 56.5803 138.483 56.3136C138.709 56.0469 137.227 54.3664 137.219 54.0262C137.212 53.6859 138.191 51.9267 138.032 51.5518C137.873 51.1769 135.961 52.322 135.532 52.3155C135.104 52.3091 133.817 50.6939 133.464 50.8439Z" stroke="#2A2F54" stroke-width="0.584"/>
<path fill-rule="evenodd" clip-rule="evenodd" d="M139.572 60.0987C139.013 59.8156 137.972 60.8929 137.972 61.2667C137.972 61.6406 138.202 62.5091 138.988 62.9068C139.512 63.1718 139.999 63.1718 140.448 62.9068C140.237 61.2235 139.946 60.2875 139.572 60.0987Z" fill="#FFE8D6" stroke="#2A2F54" stroke-width="0.584" stroke-linecap="round" stroke-linejoin="round"/>
<path d="M133.728 67.8149C133.789 66.5109 133.912 65.5587 134.096 64.9583C134.392 63.9979 136.434 60.7814 136.434 60.7814C136.434 60.7814 137.114 61.7379 136.944 62.0587C136.774 62.3795 136.501 63.049 136.214 63.7482" stroke="#2A2F54" stroke-width="0.584" stroke-linecap="round" stroke-linejoin="round"/>
<path fill-rule="evenodd" clip-rule="evenodd" d="M123.06 83.1951C122.819 82.5802 122.467 81.5086 120.498 80.8899C119.185 80.4774 117.164 81.9533 114.434 85.3177L117.709 92.4786L118.446 94.9492C121.348 96.0188 123.081 96.4253 123.646 96.1684C124.494 95.7832 122.731 93.7804 123.093 92.6744C123.455 91.5685 124.895 90.675 125.212 89.4087C125.263 89.2064 125.052 88.4798 124.568 87.1444C124.837 86.1854 124.895 85.5599 124.741 85.2678C124.588 84.9758 124.028 84.2848 123.06 83.1951Z" fill="white"/>
<path fill-rule="evenodd" clip-rule="evenodd" d="M122.849 82.9364C122.616 82.3203 122.275 81.2471 120.409 80.6118C119.166 80.1883 117.27 81.6444 114.723 84.98L117.878 92.1597L118.596 94.6333C121.345 95.7271 122.986 96.1483 123.517 95.8968C124.314 95.5196 122.632 93.504 122.964 92.4028C123.296 91.3016 124.648 90.4221 124.936 89.1604C124.982 88.9588 124.777 88.2313 124.308 86.8936C124.553 85.9383 124.602 85.3141 124.455 85.0211C124.307 84.7281 123.772 84.0332 122.849 82.9364Z" fill="#FFE0CB"/>
<path fill-rule="evenodd" clip-rule="evenodd" d="M123.991 90.6623C123.447 90.5041 121.571 91.0943 120.97 91.7352C120.368 92.3761 122.008 93.772 122.508 93.7605C123.009 93.7489 122.695 93.2895 123.242 92.2656C123.789 91.2418 124.535 90.8205 123.991 90.6623Z" fill="#FFB583"/>
<path d="M122.966 83.1894C122.727 82.5737 122.377 81.5008 120.426 80.8782C119.126 80.4631 117.128 81.9364 114.433 85.2981M117.262 91.4935C117.459 91.9363 117.601 92.2615 117.686 92.4691C118.164 93.6252 118.106 94.4484 118.359 94.8395C118.613 95.2307 123.011 96.4277 123.569 96.1718C124.408 95.7878 122.659 93.7806 123.016 92.6746C123.372 91.5686 124.796 90.6771 125.108 89.4106C125.157 89.2083 124.947 88.4809 124.466 87.1438" stroke="#2A2F54" stroke-width="0.584" stroke-linecap="round"/>
<path fill-rule="evenodd" clip-rule="evenodd" d="M113.236 85.1845C113.313 86.6116 114.497 88.579 116.788 91.0865C117.266 90.4872 117.414 89.9259 117.23 89.4026C116.956 88.6176 116.055 88.0435 116.159 87.1107C116.263 86.1779 117.133 86.2059 117.629 86.2552C118.124 86.3044 118.026 85.1899 118.18 84.4384C118.333 83.6869 118.5 83.3553 119.731 83.1603C120.963 82.9653 121.835 81.9572 122.108 81.2696C122.381 80.5819 122.381 80.4434 121.355 79.8028C120.329 79.1621 117.267 79.5568 116.003 80.407C114.739 81.2573 113.122 83.0439 113.236 85.1845Z" fill="#FFA7A7"/>
<path fill-rule="evenodd" clip-rule="evenodd" d="M114.384 82.161C115.579 82.2441 116.525 84.1735 116.885 85.012C117.245 85.8505 115.736 85.8844 115.8 86.7899C115.864 87.6954 116.975 88.321 117.162 88.9294C117.349 89.5377 117.44 90.3168 116.884 90.3169C116.328 90.3171 114.164 88.0202 113.71 86.7905C113.257 85.5607 113.19 82.0779 114.384 82.161Z" fill="#FE8476"/>
<path fill-rule="evenodd" clip-rule="evenodd" d="M112.773 84.5577C112.786 86.0587 114.041 88.1544 116.538 90.8446C117.001 90.7336 117.264 90.6005 117.327 90.4454C117.736 89.4475 117.378 88.8517 116.892 88.6244C116.035 88.224 115.919 87.2608 116.024 86.6527C116.192 85.6753 117.188 85.7261 117.754 85.7899C118.32 85.8538 118.266 84.6807 118.481 83.8949C118.696 83.1092 118.905 82.765 120.327 82.5903C121.749 82.4155 124.448 79.7128 121.875 79.2532C119.301 78.7936 117.689 78.7445 116.195 79.6068C114.701 80.469 112.754 82.3062 112.773 84.5577Z" stroke="#2A2F54" stroke-width="0.584" stroke-linecap="round" stroke-linejoin="round"/>
<path d="M117.945 87.1897L117.361 87.1897" stroke="#2A2F54" stroke-width="0.584" stroke-linecap="round"/>
<path d="M123.038 83.8778C124.111 84.3879 124.725 84.7535 124.877 84.9747C125.03 85.1959 124.888 85.6327 124.453 86.285" stroke="#2A2F54" stroke-width="0.584" stroke-linecap="round" stroke-linejoin="round"/>
<path d="M121.39 85.2546C121.629 85.2167 121.792 84.9924 121.755 84.7535C121.717 84.5145 121.492 84.3515 121.253 84.3894C121.014 84.4272 120.851 84.6516 120.889 84.8905C120.927 85.1294 121.152 85.2924 121.39 85.2546Z" fill="#2A2F54"/>
<path d="M122.603 88.0515C122.865 88.4042 123.273 88.5367 123.826 88.449C124.204 88.3892 124.48 88.2164 124.653 87.9305" stroke="#2A2F54" stroke-width="0.584" stroke-linecap="round"/>
<path d="M143.513 83.2159C143.239 83.7536 143.196 84.6111 144.025 85.0912C144.854 85.5713 145.841 85.0792 146.115 84.5416" stroke="#FFAA2B" stroke-width="0.584" stroke-linecap="round"/>
<path d="M150.018 94.4663L148.764 93.6306" stroke="#A6A8FF" stroke-width="0.593088" stroke-linecap="round"/>
<path d="M103.303 100.444L102.044 101.223" stroke="#D5E0FB" stroke-width="0.593088" stroke-linecap="round"/>
<path d="M132.915 104.24L132.412 103.559" stroke="#D5E0FB" stroke-width="0.593088" stroke-linecap="round"/>
<path d="M137.528 104.817C137.982 104.847 138.339 104.784 138.598 104.629C138.858 104.474 138.988 104.15 138.988 103.656" stroke="#FFB389" stroke-width="0.593088" stroke-linecap="round"/>
<path d="M122.757 69.2C122.424 70.3228 122.452 71.0526 122.84 71.3893C123.423 71.8944 125.186 72.0271 125.546 71.616C125.906 71.2049 125.211 70.5177 124.659 70.8237C124.107 71.1297 124.151 71.851 124.486 72.3691C124.709 72.7146 125.22 72.9647 126.018 73.1196" stroke="#FFA090" stroke-width="0.584" stroke-linecap="round"/>
<path d="M99.2759 107.268C99.5477 107.941 100.314 108.266 100.986 107.995C101.659 107.723 101.984 106.957 101.713 106.284" stroke="#FFAA2B" stroke-width="0.584" stroke-linecap="round"/>
<path d="M98.8669 89.0776C98.4909 90.2548 98.5256 90.9401 98.9711 91.1334C99.6394 91.4235 100.575 89.9521 100.991 90.5412C101.408 91.1302 100.297 92.3323 100.885 92.7846C101.473 93.2368 102.493 91.7417 103.082 92.1285C103.672 92.5153 102.276 93.6142 102.828 94.1465C103.379 94.6787 103.905 93.3783 104.595 93.8353C104.831 93.9912 104.848 94.4347 104.646 95.1657" stroke="#D49BF4" stroke-width="0.593088" stroke-linecap="round"/>
<path d="M126.552 147.783C127.135 147.988 127.593 148.11 127.928 148.152C128.263 148.193 128.738 148.184 129.353 148.127" stroke="#2A2F54" stroke-width="0.584" stroke-linecap="round"/>
<path d="M95.5654 177.104L97.1051 176.777" stroke="#2A2F54" stroke-width="0.584" stroke-linecap="round"/>
<path fill-rule="evenodd" clip-rule="evenodd" d="M138.543 89.8325C138.842 89.6682 138.94 88.641 138.611 88.4315C138.283 88.222 137.366 88.6991 137.395 89.1012C137.423 89.5033 138.245 89.9969 138.543 89.8325Z" fill="#D5E0FB"/>
<path d="M136.068 96.8311C136.741 97.3267 137.225 97.51 137.519 97.381C137.961 97.1875 137.676 96.3291 138.05 96.0575C138.425 95.7859 138.982 96.7223 139.503 96.531C140.023 96.3396 139.55 95.2384 140.145 95.0924C140.739 94.9463 141.248 95.4905 141.705 95.3736C142.009 95.2957 142.156 95.0085 142.144 94.5119" stroke="#FF9B9B" stroke-width="0.584" stroke-linecap="round"/>
<path fill-rule="evenodd" clip-rule="evenodd" d="M104.636 84.8685C104.934 84.7042 105.033 83.677 104.704 83.4675C104.375 83.258 103.459 83.7351 103.487 84.1372C103.515 84.5393 104.337 85.0329 104.636 84.8685Z" fill="#D5E0FB"/>
<path d="M142.784 109.788C143.107 109.788 143.368 109.527 143.368 109.204C143.368 108.881 143.107 108.62 142.784 108.62C142.462 108.62 142.2 108.881 142.2 109.204C142.2 109.527 142.462 109.788 142.784 109.788Z" fill="#D5E0FB"/>
<path d="M148.04 104.824C148.363 104.824 148.624 104.563 148.624 104.24C148.624 103.917 148.363 103.656 148.04 103.656C147.718 103.656 147.456 103.917 147.456 104.24C147.456 104.563 147.718 104.824 148.04 104.824Z" fill="#FFC697"/>
<path d="M94.896 98.984C95.2185 98.984 95.48 98.7226 95.48 98.4C95.48 98.0775 95.2185 97.816 94.896 97.816C94.5735 97.816 94.312 98.0775 94.312 98.4C94.312 98.7226 94.5735 98.984 94.896 98.984Z" fill="#C3CEFF"/>
</g>
<defs>
<clipPath id="clip0_7617_51620">
<rect width="181.04" height="146" fill="white" transform="translate(40 40)"/>
</clipPath>
</defs>
</svg>
