<svg width="32" height="32" viewBox="0 0 32 32" fill="none" xmlns="http://www.w3.org/2000/svg">
<g id="Group">
<path id="Vector" d="M21.7674 26.3605C21.7674 26.3605 21.7673 26.3606 21.7673 26.3606C21.3302 26.7975 20.1665 27.6012 18.9946 28.1833C18.4098 28.4738 17.8329 28.704 17.3516 28.8067C17.111 28.858 16.9014 28.8759 16.7301 28.8574C16.5595 28.8389 16.4372 28.7856 16.3554 28.7038C16.2737 28.6221 16.2205 28.4998 16.202 28.3291C16.1835 28.1578 16.2014 27.9482 16.2528 27.7075C16.3555 27.2262 16.5856 26.6493 16.8761 26.0643C17.4582 24.8924 18.2618 23.7287 18.6987 23.2918C18.6987 23.2918 18.6987 23.2918 18.6987 23.2918L22.3174 19.6731L25.3861 22.7413L21.7674 26.3605Z" fill="#FFE600" stroke="white" stroke-width="0.3"/>
<path id="Vector_2" d="M27.6534 14.3373L27.6535 14.3373C28.5004 13.4903 29.874 13.4902 30.7216 14.3373C31.5687 15.1848 31.5687 16.5584 30.7216 17.4054L30.7216 17.4054L26.3482 21.7793L23.2795 18.7111L27.6534 14.3373ZM24.8676 19.4112L24.9737 19.5172L25.0797 19.4111L28.2149 16.2743L28.3209 16.1682L28.2149 16.0622L27.6529 15.5003L27.5469 15.3943L27.4408 15.5003L24.3046 18.6366L24.1984 18.7427L24.3046 18.8488L24.8676 19.4112Z" fill="#FFE600" stroke="white" stroke-width="0.3"/>
<path id="Vector_3" d="M23.4192 28.012C22.5398 28.8905 19.196 31.2 16.8698 31.2C16.8693 31.2 16.8698 31.2 16.8693 31.2C15.7774 31.2 15.089 30.7406 14.7038 30.3553C11.9064 27.5569 16.9915 21.6953 17.047 21.6404L17.3047 21.3826C17.0582 21.1105 16.952 20.7359 16.952 19.9887C16.952 19.4365 16.952 18.4102 16.952 17.4635C17.6622 16.6749 17.9205 16.773 18.5209 13.6763C19.7355 13.6763 19.657 12.0983 20.2297 10.6985C20.6971 9.55866 20.3054 9.09654 19.9127 8.9076C20.2339 4.75366 20.2339 1.89285 15.5192 1.00541C13.8098 -0.459463 11.2313 0.0379118 10.0093 0.282287C8.78828 0.526724 7.68684 0.282287 7.68684 0.282287L7.89653 2.25041C6.10834 4.39616 7.00272 7.25697 6.71459 8.93266C6.33997 9.13704 6.00165 9.60822 6.44778 10.6985C7.0209 12.0983 6.9419 13.6763 8.15647 13.6763C8.75734 16.773 9.01565 16.6748 9.7259 17.4635C9.7259 18.4103 9.7259 19.4365 9.7259 19.9887C9.7259 21.5667 9.18965 21.594 7.96753 22.277C5.02128 23.9239 1.18178 24.8807 0.494341 30.0276C0.368466 30.969 5.77322 31.9967 13.3392 32C20.9042 31.9967 26.3095 30.969 26.1841 30.0276C25.9861 28.5462 25.5186 27.4309 24.8916 26.5397L23.4192 28.012Z" fill="white"/>
</g>
</svg>
