<svg width="20" height="20" viewBox="0 0 20 20" fill="none" xmlns="http://www.w3.org/2000/svg">
<g id="Layer 1">
<path id="Vector" d="M6.45466 10.5747L5.69442 6.61133H4.10547L4.86571 10.5747C5.09264 11.7538 5.72319 12.8171 6.64899 13.5818C7.57479 14.3466 8.73804 14.7649 9.93883 14.7651C10.2033 14.7642 10.4672 14.7413 10.7279 14.6966C9.67764 14.5337 8.70338 14.0503 7.93844 13.3125C7.1735 12.5746 6.65527 11.6184 6.45466 10.5747Z" fill="#303030"/>
<path id="Vector_2" d="M8.04907 6.61846H4.17578L4.93963 10.5818C5.16663 11.7597 5.79693 12.8216 6.72213 13.5851C7.64733 14.3485 8.80962 14.7657 10.0091 14.765C11.2099 14.7648 12.3732 14.3465 13.299 13.5818C14.2248 12.8171 14.8553 11.7538 15.0823 10.5746L15.8425 6.61125H13.6807" stroke="black" stroke-width="0.78" stroke-linecap="round" stroke-linejoin="round"/>
<path id="Vector_3" d="M10.0078 14.7651V19.3374" stroke="black" stroke-width="0.78" stroke-linecap="round" stroke-linejoin="round"/>
<path id="Vector_4" d="M6.33594 19.3374H13.6826" stroke="black" stroke-width="0.78" stroke-linecap="round" stroke-linejoin="round"/>
<path id="Vector_5" d="M15.5781 7.99463H18.7921C18.7921 7.99463 18.6443 12.0481 16.4321 13.4821" stroke="black" stroke-width="0.78" stroke-linecap="round" stroke-linejoin="round"/>
<path id="Vector_6" d="M4.42096 7.99483H1.20703C1.20703 7.99483 1.35115 12.0483 3.56704 13.4823" stroke="black" stroke-width="0.78" stroke-linecap="round" stroke-linejoin="round"/>
<path id="Vector_7" d="M10.0105 1.37939L11.1346 3.65653L13.646 4.02044L11.83 5.79315L12.2588 8.29728L10.0105 7.11547L7.76578 8.29728L8.19455 5.79315L6.375 4.02044L8.88633 3.65653L10.0105 1.37939Z" fill="url(#paint0_linear_607_213)" stroke="black" stroke-width="0.78" stroke-linecap="round" stroke-linejoin="round"/>
<path id="Vector_8" d="M7.74784 2.16868L6.46875 0.662598" stroke="black" stroke-width="0.78" stroke-linecap="round" stroke-linejoin="bevel"/>
<path id="Vector_9" d="M12.6211 2.16868L13.8966 0.662598" stroke="black" stroke-width="0.78" stroke-linecap="round" stroke-linejoin="bevel"/>
</g>
<defs>
<linearGradient id="paint0_linear_607_213" x1="11" y1="4" x2="8.5" y2="7.5" gradientUnits="userSpaceOnUse">
<stop stop-color="#FFE500" stop-opacity="0"/>
<stop offset="1" stop-color="#FFE500"/>
</linearGradient>
</defs>
</svg>
