<svg width="48" height="50" viewBox="0 0 48 50" fill="none" xmlns="http://www.w3.org/2000/svg">
<path d="M3.78803 23.8819V44.0924C3.78803 45.4324 4.32036 46.7176 5.26792 47.6651C6.21547 48.6127 7.50062 49.145 8.84067 49.145H39.1565C40.4965 49.145 41.7817 48.6127 42.7292 47.6651C43.6768 46.7176 44.2091 45.4324 44.2091 44.0924V23.8819M23.9986 9.98712C23.9986 7.64205 23.067 5.39303 21.4088 3.73481C19.7506 2.0766 17.5015 1.14502 15.1565 1.14502C13.4814 1.14502 11.875 1.81043 10.6905 2.99487C9.50608 4.17931 8.84067 5.78576 8.84067 7.46081C8.84067 9.13586 9.50608 10.7423 10.6905 11.9267C11.875 13.1112 13.4814 13.7766 15.1565 13.7766H23.9986M23.9986 9.98712V13.7766M23.9986 9.98712C23.9986 7.64205 24.9301 5.39303 26.5884 3.73481C28.2466 2.0766 30.4956 1.14502 32.8407 1.14502C34.5157 1.14502 36.1222 1.81043 37.3066 2.99487C38.491 4.17931 39.1565 5.78576 39.1565 7.46081C39.1565 8.29021 38.9931 9.11149 38.6757 9.87776C38.3583 10.644 37.8931 11.3403 37.3066 11.9267C36.7201 12.5132 36.0239 12.9784 35.2576 13.2958C34.4913 13.6132 33.6701 13.7766 32.8407 13.7766H23.9986M23.9986 23.8819V49.145M1.26172 13.7766H46.7354V23.8819H1.26172V13.7766Z" stroke="#043BFF" stroke-linecap="round" stroke-linejoin="round"/>
</svg>
