<svg width="50" height="50" viewBox="0 0 50 50" fill="none" xmlns="http://www.w3.org/2000/svg">
<path d="M46.1408 20.9416V46.5503C46.1408 47.2384 45.8674 47.8984 45.3808 48.3849C44.8942 48.8715 44.2343 49.1449 43.5462 49.1449H5.92454C5.23641 49.1449 4.57647 48.8715 4.08989 48.3849C3.6033 47.8984 3.32995 47.2384 3.32995 46.5503V20.9416M24.7354 12.6778C17.2785 1.16563 12.9144 -1.45232 8.85124 3.59676C4.60908 8.86898 14.0781 12.6778 24.7354 12.6778ZM24.7354 12.6778L17.9881 9.2413M24.7354 12.6778C32.1922 1.16563 36.5563 -1.45232 40.6195 3.59676C44.8616 8.86898 35.3926 12.6778 24.7354 12.6778ZM24.7354 12.6778L31.4826 9.2413M0.735352 12.6778H48.7353V20.9403H0.735352V12.6778Z" stroke="#043BFF" stroke-linecap="round" stroke-linejoin="round"/>
</svg>
