<svg width="49" height="47" viewBox="0 0 49 47" fill="none" xmlns="http://www.w3.org/2000/svg">
<path d="M34.0498 14.0465L33.8477 13.0891C34.9013 12.6236 35.8798 12.004 36.7511 11.2507C37.3293 10.7359 37.7951 10.1074 38.1193 9.40443C38.444 8.70047 38.6197 7.937 38.6355 7.16193L38.6355 7.15754C38.6608 6.29037 38.5086 5.42719 38.1883 4.62094C37.868 3.8147 37.3863 3.0824 36.7729 2.46895C36.1594 1.85551 35.4271 1.37387 34.6209 1.05356C33.8146 0.733256 32.9515 0.581046 32.0843 0.606269L32.0799 0.606397C31.3048 0.622114 30.5414 0.797829 29.8374 1.1225C29.1336 1.44712 28.5044 1.91364 27.9893 2.49281C26.6406 4.01503 25.7747 6.02055 25.2163 7.98331L24.7333 9.68077L24.2541 7.98224C23.7008 6.02101 22.8352 4.02032 21.4817 2.49313L34.0498 14.0465ZM34.0498 14.0465H45.8554C46.4866 14.0465 47.0919 14.2972 47.5383 14.7436C47.9846 15.1899 48.2354 15.7953 48.2354 16.4265V24.1065C48.2354 24.7377 47.9846 25.3431 47.5383 25.7894C47.0919 26.2357 46.4866 26.4865 45.8554 26.4865H44.8954H44.3954V26.9865V43.3065C44.3954 43.9377 44.1446 44.543 43.6983 44.9894C43.2519 45.4357 42.6466 45.6865 42.0154 45.6865H7.45535C6.82414 45.6865 6.21877 45.4357 5.77244 44.9894C5.3261 44.543 5.07535 43.9377 5.07535 43.3065V26.9865V26.4865H4.57535H3.61535C2.98414 26.4865 2.37877 26.2357 1.93244 25.7894C1.4861 25.3431 1.23535 24.7377 1.23535 24.1065V16.4265C1.23535 15.7953 1.4861 15.1899 1.93244 14.7436C2.37877 14.2972 2.98414 14.0465 3.61535 14.0465H15.421L15.623 13.0891C14.5694 12.6236 13.5908 12.0039 12.7194 11.2506C12.1413 10.7358 11.6756 10.1074 11.3514 9.40443C11.0267 8.70047 10.851 7.937 10.8352 7.16193L10.8353 7.16193L10.8351 7.15754C10.8099 6.29037 10.9621 5.42719 11.2824 4.62094C11.6027 3.8147 12.0844 3.0824 12.6978 2.46895C13.3113 1.85551 14.0436 1.37387 14.8498 1.05356C15.6561 0.733256 16.5192 0.581046 17.3864 0.606288L17.3908 0.606378M34.0498 14.0465L17.3908 0.606378M17.3908 0.606378C18.1659 0.622114 18.9293 0.797829 19.6333 1.1225C20.337 1.44707 20.9661 1.91349 21.4812 2.49254L17.3908 0.606378ZM28.6828 3.09943L28.6809 3.10158C27.3169 4.64332 26.4969 6.71472 25.9975 8.63375C25.496 10.5605 25.3057 12.3814 25.2302 13.4612L25.1902 14.0321L25.7614 13.995C26.8511 13.9243 28.6794 13.7358 30.6098 13.2361C32.5324 12.7386 34.6042 11.9204 36.1403 10.5609L36.1424 10.5591C36.6269 10.1255 37.0167 9.59652 37.2873 9.00535C37.5576 8.41495 37.7033 7.77517 37.7152 7.12596C37.7353 6.39916 37.6098 5.67567 37.3459 4.99813C37.0818 4.31978 36.6844 3.70124 36.1772 3.17904C35.67 2.65683 35.0634 2.24155 34.393 1.95772C33.7227 1.67388 33.0022 1.52725 32.2743 1.52648H32.2738H32.1274V1.5264L32.1184 1.52656C31.4683 1.53819 30.8277 1.68389 30.2365 1.95454C29.6453 2.22518 29.1164 2.61495 28.6828 3.09943ZM17.197 1.52648L17.1964 1.52648C16.4685 1.52725 15.748 1.67388 15.0777 1.95772C14.4073 2.24155 13.8007 2.65683 13.2935 3.17904C12.7863 3.70124 12.3889 4.31978 12.1248 4.99813C11.8612 5.67509 11.7356 6.39791 11.7554 7.12409C11.7627 7.77442 11.9042 8.41626 12.171 9.0094C12.4385 9.6039 12.8261 10.1366 13.3095 10.574L13.3094 10.5741L13.3142 10.5782C14.8549 11.9373 16.9288 12.7554 18.8513 13.2529C20.7816 13.7525 22.6075 13.941 23.6924 14.0118L24.2608 14.0489L24.2239 13.4805C24.1531 12.3909 23.9653 10.5626 23.4659 8.63207C22.9686 6.70948 22.1505 4.63751 20.7896 3.10133L20.7879 3.09944C20.3543 2.61495 19.8254 2.22518 19.2342 1.95454C18.6431 1.68389 18.0024 1.53819 17.3523 1.52656L17.3523 1.52648H17.3434L17.197 1.52648ZM24.2754 15.4665V14.9665H23.7754H3.61535C3.22814 14.9665 2.85678 15.1203 2.58298 15.3941C2.30917 15.6679 2.15535 16.0393 2.15535 16.4265V24.1065C2.15535 24.4937 2.30917 24.8651 2.58298 25.1389C2.85678 25.4127 3.22814 25.5665 3.61535 25.5665H23.7754H24.2754V25.0665V15.4665ZM6.49535 26.4865H5.99535V26.9865V43.3065C5.99535 43.6937 6.14917 44.065 6.42298 44.3389C6.69678 44.6127 7.06814 44.7665 7.45535 44.7665H23.7754H24.2754V44.2665V26.9865V26.4865H23.7754H6.49535ZM25.1954 44.2665V44.7665H25.6954H42.0154C42.4026 44.7665 42.7739 44.6127 43.0477 44.3389C43.3215 44.065 43.4754 43.6937 43.4754 43.3065V26.9865V26.4865H42.9754H25.6954H25.1954V26.9865V44.2665ZM25.1954 25.0665V25.5665H25.6954H45.8554C46.2426 25.5665 46.6139 25.4127 46.8877 25.1389C47.1615 24.8651 47.3154 24.4937 47.3154 24.1065V16.4265C47.3154 16.0393 47.1615 15.6679 46.8877 15.3941C46.6139 15.1203 46.2426 14.9665 45.8554 14.9665H25.6954H25.1954V15.4665V25.0665Z" stroke="#043BFF"/>
</svg>
