<svg width="32" height="32" viewBox="0 0 32 32" fill="none" xmlns="http://www.w3.org/2000/svg">
<mask id="path-1-inside-1_821_101" fill="white">
<path fill-rule="evenodd" clip-rule="evenodd" d="M4.00399 26.124V28.338C4.00399 30.948 3.78999 31.888 6.96799 31.888H24.788C27.964 31.888 27.748 30.946 27.748 28.338V26.124H4.00399Z"/>
</mask>
<path fill-rule="evenodd" clip-rule="evenodd" d="M4.00399 26.124V28.338C4.00399 30.948 3.78999 31.888 6.96799 31.888H24.788C27.964 31.888 27.748 30.946 27.748 28.338V26.124H4.00399Z" fill="white"/>
<path d="M4.00399 26.124V-23.876H-45.996V26.124H4.00399ZM27.748 26.124H77.748V-23.876H27.748V26.124ZM-45.996 26.124V28.338H54.004V26.124H-45.996ZM-45.996 28.338C-45.996 26.9958 -46.0444 30.624 -45.8744 33.2379C-45.698 35.9514 -45.0143 46.3158 -38.344 57.2065C-30.3081 70.327 -18.4871 76.7881 -9.291 79.5653C-1.77263 81.8358 4.66072 81.888 6.96799 81.888V-18.112C7.68626 -18.112 12.9546 -18.1773 19.6193 -16.1645C27.9617 -13.6451 39.2403 -7.58218 46.9325 4.97705C53.259 15.3065 53.7976 24.9465 53.9149 26.7497C54.0256 28.4533 54.004 30.9852 54.004 28.338H-45.996ZM6.96799 81.888H24.788V-18.112H6.96799V81.888ZM24.788 81.888C27.1004 81.888 33.5453 81.8353 41.0761 79.5557C50.2929 76.7658 62.1086 70.2835 70.1278 57.1558C76.7781 46.269 77.4539 35.9151 77.6283 33.2138C77.796 30.615 77.748 26.9831 77.748 28.338H-22.252C-22.252 30.997 -22.273 28.4608 -22.164 26.7721C-22.0484 24.981 -21.5171 15.3515 -15.2098 5.02623C-7.53359 -7.53997 3.74056 -13.6238 12.1046 -16.1556C18.7827 -18.177 24.0635 -18.112 24.788 -18.112V81.888ZM77.748 28.338V26.124H-22.252V28.338H77.748ZM27.748 -23.876H4.00399V76.124H27.748V-23.876Z" fill="white" mask="url(#path-1-inside-1_821_101)"/>
<mask id="path-3-inside-2_821_101" fill="white">
<path d="M9.87 6H8V12.144H9.87V6Z"/>
</mask>
<path d="M9.87 6H8V12.144H9.87V6Z" fill="white"/>
<path d="M8 6V-44H-42V6H8ZM9.87 6H59.87V-44H9.87V6ZM9.87 12.144V62.144H59.87V12.144H9.87ZM8 12.144H-42V62.144H8V12.144ZM8 56H9.87V-44H8V56ZM-40.13 6V12.144H59.87V6H-40.13ZM9.87 -37.856H8V62.144H9.87V-37.856ZM58 12.144V6H-42V12.144H58Z" fill="white" mask="url(#path-3-inside-2_821_101)"/>
<path d="M16 6H14V11.938H16V6Z" fill="white"/>
<path d="M23.98 6H22V11.702H23.98V6Z" fill="white"/>
<path fill-rule="evenodd" clip-rule="evenodd" d="M9.92972 1.95C10.1297 2.762 9.81372 3.696 9.05572 3.77999C8.34772 3.85999 7.80572 2.94599 8.34972 2.03999C8.90772 1.11999 9.05572 0.119995 9.05572 0.119995C9.05572 0.119995 9.69572 0.973995 9.92972 1.95Z" fill="#FFE600"/>
<path fill-rule="evenodd" clip-rule="evenodd" d="M15.876 2.04204C16.086 2.89404 15.754 3.87804 14.938 3.96604C14.176 4.05004 13.594 3.08804 14.182 2.13804C14.782 1.16804 14.938 0.118042 14.938 0.118042C14.938 0.118042 15.622 1.01804 15.876 2.04204Z" fill="#FFE600"/>
<path fill-rule="evenodd" clip-rule="evenodd" d="M23.9477 2.04602C24.1717 2.89802 23.8157 3.87802 22.9517 3.96602C22.1437 4.05002 21.5237 3.09002 22.1497 2.14002C22.7877 1.17402 22.9517 0.124023 22.9517 0.124023C22.9517 0.124023 23.6777 1.02402 23.9477 2.04602Z" fill="#FFE600"/>
<path fill-rule="evenodd" clip-rule="evenodd" d="M6.29196 16.8741C7.12196 16.8741 8.32396 16.0861 8.67796 15.8101C8.68796 15.7981 10.132 14.4421 11.882 14.4421C13.624 14.4421 15.128 15.7861 15.19 15.8441C15.514 16.1241 16.586 16.8741 17.538 16.8741C18.662 16.8741 19.754 15.8641 19.754 15.8641C19.834 15.7881 21.328 14.4421 23.13 14.4421C24.94 14.4421 26.382 15.7981 26.442 15.8561C26.764 16.1321 27.37 16.5381 27.916 16.7401C27.854 14.1381 26.658 12.0601 23.564 12.0601H8.51796C5.73596 12.0601 4.48196 13.7341 4.20996 15.9581C4.65996 16.2921 5.58596 16.8741 6.29196 16.8741Z" fill="white"/>
<path fill-rule="evenodd" clip-rule="evenodd" d="M25.4343 18.938C25.3983 18.906 24.3203 17.9 23.1323 17.9C21.9343 17.9 20.8023 18.914 20.7883 18.926C20.7363 18.972 19.2863 20.326 17.5403 20.326C15.8103 20.326 14.2583 18.992 14.1923 18.934C13.8663 18.642 12.8283 17.9 11.8843 17.9C10.7603 17.9 9.6763 18.906 9.6623 18.914C9.4323 19.098 7.7983 20.326 6.2943 20.326C5.5223 20.326 4.7503 20.008 4.1543 19.676V23.89H27.9323V20.262C26.7103 20.008 25.5783 19.06 25.4343 18.938Z" fill="white"/>
<path d="M31.702 28H0V31.87H31.702V28Z" fill="white"/>
</svg>
