<svg width="72" height="72" viewBox="0 0 72 72" fill="none" xmlns="http://www.w3.org/2000/svg">
<g clip-path="url(#clip0_620_510)">
<path d="M29.7852 42.3982L37.0146 46.5722L22.3338 72.0003L18.1201 62.6027L29.7852 42.3982Z" fill="#AA75CB"/>
<path d="M29.7854 42.3981L22.5559 38.2241L7.875 63.6523L18.1203 62.6026L29.7854 42.3981Z" fill="#73488D"/>
<path d="M40.0986 42.3982L32.8691 46.5722L47.5499 72.0003L51.7635 62.6027L40.0986 42.3982Z" fill="#73488D"/>
<path d="M40.0986 42.3981L47.3281 38.2241L62.0089 63.6523L51.7635 62.6026L40.0986 42.3981Z" fill="#AA75CB"/>
<path d="M34.93 49.7799C48.6763 49.7799 59.8199 38.6363 59.8199 24.8899C59.8199 11.1436 48.6763 0 34.93 0C21.1836 0 10.04 11.1436 10.04 24.8899C10.04 38.6363 21.1836 49.7799 34.93 49.7799Z" fill="#DC9E42"/>
<path d="M34.9307 44.3185C45.6609 44.3185 54.3595 35.6199 54.3595 24.8897C54.3595 14.1595 45.6609 5.46094 34.9307 5.46094C24.2005 5.46094 15.502 14.1595 15.502 24.8897C15.502 35.6199 24.2005 44.3185 34.9307 44.3185Z" fill="#734C12"/>
<mask id="mask0_620_510" style="mask-type:alpha" maskUnits="userSpaceOnUse" x="16" y="7" width="40" height="40">
<path d="M35.9681 46.438C46.7233 46.438 55.4421 37.7192 55.4421 26.964C55.4421 16.2088 46.7233 7.48999 35.9681 7.48999C25.2129 7.48999 16.4941 16.2088 16.4941 26.964C16.4941 37.7192 25.2129 46.438 35.9681 46.438Z" fill="#C28B37"/>
</mask>
<g mask="url(#mask0_620_510)">
<path d="M34.931 44.364C45.6862 44.364 54.405 35.6452 54.405 24.89C54.405 14.1348 45.6862 5.41602 34.931 5.41602C24.1758 5.41602 15.457 14.1348 15.457 24.89C15.457 35.6452 24.1758 44.364 34.931 44.364Z" fill="#A36D1D"/>
</g>
<path d="M35.0351 11.3423L39.2358 19.7439L47.6375 20.7941L41.8683 27.2635L43.4368 36.5472L35.0351 32.3464L26.6334 36.5472L28.2157 27.2635L22.4326 20.7941L30.8343 19.7439L35.0351 11.3423Z" fill="url(#paint0_linear_620_510)"/>
</g>
<defs>
<linearGradient id="paint0_linear_620_510" x1="35.0351" y1="11.3423" x2="35.0351" y2="36.5472" gradientUnits="userSpaceOnUse">
<stop stop-color="#FCFF80"/>
<stop offset="0.401042" stop-color="#FDE870"/>
<stop offset="1" stop-color="#FFC759"/>
</linearGradient>
<clipPath id="clip0_620_510">
<rect width="72" height="72" fill="white"/>
</clipPath>
</defs>
</svg>
