<svg width="18" height="24" viewBox="0 0 18 24" fill="none" xmlns="http://www.w3.org/2000/svg">
<g id="Group">
<path id="Vector" d="M17.25 7.5H13.5V4.5C13.5 2.01487 11.4851 0 9 0C6.51487 0 4.5 2.01487 4.5 4.5V7.5H0.75C0.335625 7.5 0 7.83563 0 8.25V22.5C0 23.3291 0.670875 24 1.5 24H16.5C17.3291 24 18 23.3291 18 22.5V8.25C18 7.83563 17.6644 7.5 17.25 7.5ZM5.25 4.5C5.25 2.42925 6.92925 0.75 9 0.75C11.0708 0.75 12.75 2.42925 12.75 4.5V9H12V4.5C12 2.84325 10.6567 1.5 9 1.5C7.34325 1.5 6 2.84325 6 4.5V9H5.25V4.5ZM11.25 4.5V7.5H6.75V4.5C6.75 3.25763 7.75763 2.25 9 2.25C10.2424 2.25 11.25 3.25763 11.25 4.5ZM17.25 22.5C17.25 22.914 16.914 23.25 16.5 23.25H1.5C1.086 23.25 0.75 22.914 0.75 22.5V21.75H17.25V22.5ZM17.25 21H0.75V8.625C0.75 8.41763 0.917625 8.25 1.125 8.25H4.5V9.375C4.5 9.58237 4.66762 9.75 4.875 9.75H6.375C6.58238 9.75 6.75 9.58237 6.75 9.375V8.25H11.25V9.375C11.25 9.58237 11.4176 9.75 11.625 9.75H13.125C13.3324 9.75 13.5 9.58237 13.5 9.375V8.25H16.875C17.0824 8.25 17.25 8.41763 17.25 8.625V21Z" fill="#303030"/>
<path id="Vector_2" d="M10.5 12.75C10.086 12.75 9.711 12.918 9.4395 13.1895L9 13.626L8.5605 13.1895C8.289 12.918 7.914 12.75 7.5 12.75C6.67162 12.75 6 13.4216 6 14.25C6 14.664 6.26737 15.051 6.53925 15.3221L8.73487 17.5181C8.8815 17.6648 9.1185 17.6648 9.26513 17.5181L11.4551 15.3278C11.7266 15.0566 12 14.664 12 14.25C12 13.4216 11.3284 12.75 10.5 12.75ZM10.9335 14.7893L9 16.7228L7.0665 14.7893C6.93037 14.6535 6.75 14.4574 6.75 14.25C6.75 13.836 7.086 13.5 7.5 13.5C7.70738 13.5 7.89487 13.584 8.03025 13.7197L8.73487 14.4214C8.8815 14.568 9.1185 14.568 9.26513 14.4214L9.96975 13.7197C10.1051 13.584 10.2926 13.5 10.5 13.5C10.914 13.5 11.25 13.836 11.25 14.25C11.25 14.4574 11.0696 14.6535 10.9335 14.7893Z" fill="#FFE600"/>
</g>
</svg>
