<svg width="32" height="32" viewBox="0 0 32 32" fill="none" xmlns="http://www.w3.org/2000/svg">
<path d="M4.01587 2.97928L3.92853 3L4.01587 2.97928Z" fill="white" stroke="white" stroke-width="33.3333"/>
<path d="M13.1833 28C13.1833 29.39 12.0566 30.5167 10.6667 30.5167C9.27675 30.5167 8.15 29.39 8.15 28C8.15 26.6101 9.27675 25.4834 10.6667 25.4834C12.0566 25.4834 13.1833 26.6101 13.1833 28Z" fill="#FFE600" stroke="white" stroke-width="0.3"/>
<path d="M27.8503 28C27.8503 29.39 26.7236 30.5167 25.3337 30.5167C23.9437 30.5167 22.817 29.39 22.817 28C22.817 26.6101 23.9437 25.4834 25.3337 25.4834C26.7236 25.4834 27.8503 26.6101 27.8503 28Z" fill="white" stroke="white" stroke-width="0.3"/>
</svg>
