<svg width="32" height="32" viewBox="0 0 32 32" fill="none" xmlns="http://www.w3.org/2000/svg">
<mask id="path-1-inside-1_768_650" fill="white">
<path d="M30.9959 16.091C30.9949 7.81005 24.2819 1.09705 15.9999 1.09705C7.71791 1.09705 1.00391 7.81105 1.00391 16.093C1.00391 23.548 6.44391 29.732 13.5699 30.893L13.6559 30.9051V20.427H9.84791V16.091H13.6559V12.789C13.6369 12.622 13.6269 12.428 13.6269 12.232C13.6269 9.30905 15.9969 6.93905 18.9199 6.93905C19.0609 6.93905 19.2009 6.94505 19.3399 6.95505L19.3219 6.95405C20.5209 6.97105 21.6809 7.07705 22.8129 7.26605L22.6789 7.24705V10.937H20.7869C20.7009 10.925 20.6019 10.918 20.5019 10.918C19.3049 10.918 18.3339 11.888 18.3339 13.086C18.3339 13.154 18.3369 13.221 18.3429 13.288L18.3419 13.279V16.091H22.5009L21.8359 20.427H18.3419V30.9051C25.5549 29.7311 30.9949 23.546 30.9959 16.091Z"/>
</mask>
<path d="M30.9959 16.091C30.9949 7.81005 24.2819 1.09705 15.9999 1.09705C7.71791 1.09705 1.00391 7.81105 1.00391 16.093C1.00391 23.548 6.44391 29.732 13.5699 30.893L13.6559 30.9051V20.427H9.84791V16.091H13.6559V12.789C13.6369 12.622 13.6269 12.428 13.6269 12.232C13.6269 9.30905 15.9969 6.93905 18.9199 6.93905C19.0609 6.93905 19.2009 6.94505 19.3399 6.95505L19.3219 6.95405C20.5209 6.97105 21.6809 7.07705 22.8129 7.26605L22.6789 7.24705V10.937H20.7869C20.7009 10.925 20.6019 10.918 20.5019 10.918C19.3049 10.918 18.3339 11.888 18.3339 13.086C18.3339 13.154 18.3369 13.221 18.3429 13.288L18.3419 13.279V16.091H22.5009L21.8359 20.427H18.3419V30.9051C25.5549 29.7311 30.9949 23.546 30.9959 16.091Z" fill="#4378FF"/>
<path d="M30.9959 16.091L55.9959 16.0944L55.9959 16.088L30.9959 16.091ZM13.5699 30.893L9.5498 55.5677L9.83178 55.6136L10.1147 55.6531L13.5699 30.893ZM13.6559 30.9051L10.2007 55.6651L38.6559 59.6359V30.9051H13.6559ZM13.6559 20.427H38.6559V-4.57295H13.6559V20.427ZM9.84791 20.427H-15.1521V45.427H9.84791V20.427ZM9.84791 16.091V-8.90895H-15.1521V16.091H9.84791ZM13.6559 16.091V41.091H38.6559V16.091H13.6559ZM13.6559 12.789H38.6559V11.3715L38.4957 9.96297L13.6559 12.789ZM19.3399 6.95505L17.9532 31.9166L21.1338 -17.9805L19.3399 6.95505ZM19.3219 6.95405L19.6763 -18.0434L17.9352 31.9156L19.3219 6.95405ZM22.8129 7.26605L19.3033 32.0185L26.9299 -17.3926L22.8129 7.26605ZM22.6789 7.24705L26.1885 -17.5054L-2.32109 -21.5477V7.24705H22.6789ZM22.6789 10.937V35.937H47.6789V10.937H22.6789ZM20.7869 10.937L17.332 35.6972L19.0511 35.937H20.7869V10.937ZM18.3429 13.288L-6.50377 16.0526L43.2433 11.0582L18.3429 13.288ZM18.3419 13.279L43.1886 10.5145L-6.6581 13.279H18.3419ZM18.3419 16.091H-6.6581V41.091H18.3419V16.091ZM22.5009 16.091L47.212 19.8809L51.6274 -8.90895H22.5009V16.091ZM21.8359 20.427V45.427H43.294L46.547 24.2169L21.8359 20.427ZM18.3419 20.427V-4.57295H-6.6581V20.427H18.3419ZM18.3419 30.9051H-6.6581V60.3031L22.3581 55.5803L18.3419 30.9051ZM55.9959 16.088C55.9932 -5.99824 38.0885 -23.903 15.9999 -23.903V26.097C10.4753 26.097 5.99657 21.6183 5.99591 16.0941L55.9959 16.088ZM15.9999 -23.903C-6.08922 -23.903 -23.9961 -5.99607 -23.9961 16.093H26.0039C26.0039 21.6182 21.525 26.097 15.9999 26.097V-23.903ZM-23.9961 16.093C-23.9961 36.0008 -9.47634 52.4679 9.5498 55.5677L17.59 6.21839C22.3642 6.99622 26.0039 11.0953 26.0039 16.093H-23.9961ZM10.1147 55.6531L10.2007 55.6651L17.1111 6.14497L17.0251 6.13297L10.1147 55.6531ZM38.6559 30.9051V20.427H-11.3441V30.9051H38.6559ZM13.6559 -4.57295H9.84791V45.427H13.6559V-4.57295ZM34.8479 20.427V16.091H-15.1521V20.427H34.8479ZM9.84791 41.091H13.6559V-8.90895H9.84791V41.091ZM38.6559 16.091V12.789H-11.3441V16.091H38.6559ZM38.4957 9.96297C38.6006 10.8854 38.6269 11.6493 38.6269 12.232H-11.3731C-11.3731 13.2068 -11.3268 14.3587 -11.1838 15.6151L38.4957 9.96297ZM38.6269 12.232C38.6269 23.1162 29.804 31.939 18.9199 31.939V-18.061C2.18978 -18.061 -11.3731 -4.49807 -11.3731 12.232H38.6269ZM18.9199 31.939C18.3557 31.939 17.8871 31.9151 17.546 31.8906L21.1338 -17.9805C20.5147 -18.0251 19.7662 -18.061 18.9199 -18.061V31.939ZM20.7266 -18.0065L20.7086 -18.0075L17.9352 31.9156L17.9532 31.9166L20.7266 -18.0065ZM18.9675 31.9515C18.9435 31.9512 18.9049 31.9497 18.8547 31.9452C18.8044 31.9407 18.7506 31.9339 18.6959 31.9247L26.9299 -17.3926C24.5483 -17.7903 22.1305 -18.0086 19.6763 -18.0434L18.9675 31.9515ZM26.3225 -17.4864L26.1885 -17.5054L19.1693 31.9995L19.3033 32.0185L26.3225 -17.4864ZM-2.32109 7.24705V10.937H47.6789V7.24705H-2.32109ZM22.6789 -14.063H20.7869V35.937H22.6789V-14.063ZM24.2418 -13.8231C22.9551 -14.0026 21.6997 -14.082 20.5019 -14.082V35.918C19.5041 35.918 18.4467 35.8527 17.332 35.6972L24.2418 -13.8231ZM20.5019 -14.082C5.50531 -14.082 -6.66609 -1.92659 -6.66609 13.086H43.3339C43.3339 25.7027 33.1045 35.918 20.5019 35.918V-14.082ZM-6.66609 13.086C-6.66609 13.8961 -6.63006 14.7071 -6.55745 15.5179L43.2433 11.0582C43.3039 11.735 43.3339 12.412 43.3339 13.086H-6.66609ZM43.1896 10.5235L43.1886 10.5145L-6.50477 16.0436L-6.50377 16.0526L43.1896 10.5235ZM-6.6581 13.279V16.091H43.3419V13.279H-6.6581ZM18.3419 41.091H22.5009V-8.90895H18.3419V41.091ZM-2.21017 12.3012L-2.87516 16.6372L46.547 24.2169L47.212 19.8809L-2.21017 12.3012ZM21.8359 -4.57295H18.3419V45.427H21.8359V-4.57295ZM-6.6581 20.427V30.9051H43.3419V20.427H-6.6581ZM22.3581 55.5803C41.3887 52.4829 55.9932 36.0855 55.9959 16.0944L5.99591 16.0877C5.99659 11.0066 9.72108 6.97921 14.3257 6.22975L22.3581 55.5803Z" fill="white" mask="url(#path-1-inside-1_768_650)"/>
</svg>
