<svg width="32" height="32" viewBox="0 0 32 32" fill="none" xmlns="http://www.w3.org/2000/svg">
<path d="M14.575 10.4C14.575 13.1499 12.3498 15.375 9.6 15.375C6.85018 15.375 4.625 13.1499 4.625 10.4C4.625 7.65023 6.85018 5.42505 9.6 5.42505C12.3498 5.42505 14.575 7.65023 14.575 10.4ZM9.6 19.0251C10.8815 19.0251 12.0832 18.7244 13.1648 18.225H13.44C16.2748 18.225 18.575 20.5252 18.575 23.3601V24.8001C18.575 25.7799 17.7798 26.5751 16.8 26.5751H2.4C1.42018 26.5751 0.625 25.7799 0.625 24.8001V23.3601C0.625 20.5252 2.92518 18.225 5.76 18.225H6.03571C7.12054 18.724 8.31762 19.0251 9.6 19.0251ZM28.175 11.2C28.175 13.5049 26.3048 15.375 24 15.375C21.6952 15.375 19.825 13.5049 19.825 11.2C19.825 8.89523 21.6952 7.02505 24 7.02505C26.3048 7.02505 28.175 8.89523 28.175 11.2ZM24 18.625C24.8274 18.625 25.5989 18.4628 26.3131 18.225H26.4C29.1498 18.225 31.375 20.4502 31.375 23.2001C31.375 24.1799 30.5798 24.975 29.6 24.975H21.425V23.3601C21.425 21.5593 20.8123 19.9099 19.8059 18.5801C20.3663 18.3538 20.9676 18.225 21.6 18.225H21.6869C22.4011 18.4628 23.1726 18.625 24 18.625Z" fill="white" stroke="white" stroke-width="1.25"/>
</svg>
