<svg width="56" height="56" viewBox="0 0 56 56" fill="none" xmlns="http://www.w3.org/2000/svg">
<path d="M16.5227 10.7248C16.5303 10.7248 16.538 10.7258 16.5457 10.7258H30.6564C31.1796 10.7258 31.6035 10.3019 31.6035 9.7789C31.6035 9.25576 31.1796 8.83203 30.6564 8.83203H19.8559H16.5457C16.0226 8.83203 15.5986 9.25576 15.5986 9.7789C15.5986 10.2941 16.0105 10.7124 16.5227 10.7248Z" fill="#FFE600"/>
<path d="M16.5457 15.4743H39.861C40.3841 15.4743 40.8081 15.0503 40.8081 14.5273C40.8081 14.0042 40.3841 13.5803 39.861 13.5803H16.5457C16.0226 13.5803 15.5986 14.0042 15.5986 14.5273C15.5986 15.0503 16.0227 15.4743 16.5457 15.4743Z" fill="#FFE600"/>
<path d="M16.5457 20.2226H39.861C40.3841 20.2226 40.8081 19.7985 40.8081 19.2755C40.8081 18.9995 40.6892 18.752 40.5008 18.5789C40.3321 18.4239 40.1081 18.3286 39.861 18.3286H16.5457C16.2987 18.3286 16.0745 18.4239 15.9058 18.5789C15.7174 18.752 15.5986 18.9995 15.5986 19.2755C15.5986 19.7985 16.0227 20.2226 16.5457 20.2226Z" fill="#FFE600"/>
<path d="M40.8081 24.0238C40.8081 23.5009 40.3841 23.0769 39.861 23.0769H16.5457C16.0226 23.0769 15.5986 23.5009 15.5986 24.0238C15.5986 24.5469 16.0226 24.9709 16.5457 24.9709H39.861C40.3841 24.9709 40.8081 24.5469 40.8081 24.0238Z" fill="#FFE600"/>
<path d="M55.1316 16.5982C55.0544 16.4917 54.9546 16.399 54.8329 16.3299L47.1654 11.9756V9.41236V9.10582C47.1261 8.86508 46.9964 8.65468 46.8106 8.51266L45.2716 7.18001L41.1938 3.64865L39.2684 1.98122C39.1039 1.83867 38.8992 1.76279 38.69 1.75488H38.6216H29.1682H27.0867H11.9387C10.4513 1.75488 9.24124 2.96495 9.24124 4.45209V11.8891L1.91498 16.05C0.929439 16.4098 0.222656 17.354 0.222656 18.4624V51.6749C0.222656 53.0921 1.37576 54.2452 2.79312 54.2452H53.3673C54.7847 54.2452 55.9378 53.0921 55.9378 51.6749V18.4624C55.9378 17.7284 55.6267 17.0671 55.1316 16.5982ZM50.2266 15.892L53.1068 17.5279L52.744 17.7862L47.1654 21.758V17.7862V15.8921V14.1538L50.2266 15.892ZM43.7267 8.32083H39.5921V4.74015L43.7267 8.32083ZM11.1353 17.7862V15.8921V12.9917V10.8136V4.45209C11.1353 4.0091 11.4957 3.64865 11.9387 3.64865H23.7516H27.5871H28.6677H32.5033H37.718V9.25786C37.718 9.77527 38.1375 10.1946 38.6551 10.1946H45.2716V10.8998V13.0781V15.892V17.7862V23.1063L32.9112 31.9067L31.3314 33.0313L30.753 33.4432L28.2302 35.2392L25.7073 33.4432L25.1283 33.031L23.5484 31.9062L11.1353 23.0684V17.7862ZM6.02806 15.892L9.24124 14.0674V15.892V17.7862V21.72L3.71613 17.7862L3.262 17.4628L6.02806 15.892ZM2.11664 51.3018V18.9723L9.24124 24.0449L11.1353 25.3933L22.1106 33.2074L21.8502 33.4433L19.7574 35.337L2.11664 51.3018ZM3.77981 52.3515L22.5801 35.337L23.6905 34.332L25.102 35.337L27.6811 37.1735C27.8454 37.2904 28.0377 37.3488 28.2303 37.3488C28.4228 37.3488 28.6151 37.2904 28.7794 37.1735L31.3582 35.337L32.7692 34.3326L33.8795 35.337L52.6803 52.3515H3.77981ZM54.0437 51.0307L36.702 35.3371L34.6093 33.4433L34.3492 33.208L45.2716 25.4314L47.1654 24.0828L54.0437 19.1857V51.0307Z" fill="#FFE600"/>
</svg>
