<svg width="32" height="26" viewBox="0 0 32 26" fill="none" xmlns="http://www.w3.org/2000/svg">
<path id="Vector" d="M30.1429 14.7143V19.8571C30.1429 22.0848 24.7703 25 18.1429 25C11.5154 25 6.14286 22.0848 6.14286 19.8571C6.14286 19.1242 6.14286 17.6957 6.14286 15.5714M6.64661 16.015C8.12913 17.9834 12.7152 19.8291 18.1429 19.8291C24.7703 19.8291 30.1429 17.0772 30.1429 14.7103C30.1429 13.3821 28.4512 11.9265 25.7954 10.9046M25 6.14286V11.2857C25 13.5134 19.6274 16.4286 13 16.4286C6.37258 16.4286 1 13.5134 1 11.2857C1 10.1864 1 7.2422 1 6.14286M13 11.2577C19.6274 11.2577 25 8.50582 25 6.13888C25 3.77195 19.6274 1 13 1C6.37258 1 1 3.77195 1 6.13888C1 8.50582 6.37258 11.2577 13 11.2577Z" stroke="black" stroke-opacity="0.1" stroke-width="2" stroke-linecap="round" stroke-linejoin="round"/>
</svg>
