<svg width="76" height="77" viewBox="0 0 76 77" fill="none" xmlns="http://www.w3.org/2000/svg">
<path d="M29.9248 51.6829C29.2123 52.3954 28.4998 53.3454 28.0248 54.2954C25.1748 51.9204 22.3248 49.3079 19.9498 46.2204C20.8998 45.7454 21.8498 45.0329 22.5623 44.3204C25.8873 40.9954 24.6998 36.7204 21.3748 33.3954C18.0498 30.0704 13.7748 28.8829 10.4498 32.2079C7.12481 35.5329 6.64981 41.7079 9.26231 45.5079C14.0123 52.8704 21.3748 59.9954 28.7373 64.9829C32.7748 67.5954 38.7123 67.1204 42.0373 63.7954C45.3623 60.4704 44.1748 56.1954 40.8498 52.8704C37.5248 49.5454 33.4873 48.3579 29.9248 51.6829Z" stroke="#FFE600" stroke-width="2" stroke-miterlimit="10" stroke-linejoin="round"/>
<path d="M52.2498 61.6578C61.9873 57.1453 68.8748 47.1703 68.8748 35.7703C68.8748 20.0953 56.0498 7.27026 40.3748 7.27026C29.9248 7.27026 20.6623 12.9703 15.6748 21.5203" stroke="#FFE600" stroke-width="2" stroke-miterlimit="10" stroke-linejoin="round"/>
<path d="M30.875 28.4078L31.825 27.4578C33.4875 25.7953 36.1 25.7953 37.7625 27.4578C39.425 29.1203 39.425 31.7328 37.7625 33.3953L30.875 40.5203H40.375" stroke="#FFE600" stroke-width="2" stroke-miterlimit="10" stroke-linejoin="round"/>
<path d="M52.25 35.7703H45.125L54.625 26.2703V42.8953" stroke="#FFE600" stroke-width="2" stroke-miterlimit="10" stroke-linejoin="round"/>
</svg>
