<svg width="52" height="53" viewBox="0 0 52 53" fill="none" xmlns="http://www.w3.org/2000/svg">
<g id="shopping-cart-svgrepo-com 1">
<g id="Group">
<path id="Vector" d="M43.1439 31.8624H37.0502V34.9499H43.1439C43.9564 34.9499 44.6877 35.5999 44.6877 36.4937C44.6877 37.3874 44.0377 38.0374 43.1439 38.0374H5.11895C4.30645 38.0374 3.5752 38.6874 3.5752 39.5812C3.5752 40.3937 4.2252 41.1249 5.11895 41.1249H43.2252C45.7439 41.1249 47.7752 39.0937 47.7752 36.5749C47.7752 33.8937 45.6627 31.8624 43.1439 31.8624Z" fill="#56ACE0"/>
<path id="Vector_2" d="M44.2816 21.3812L41.2754 21.1375C41.2754 21.0562 43.1441 9.92498 43.5504 7.64998C43.7941 6.34998 44.2816 2.69373 48.9129 2.69373V5.78123C47.0441 5.78123 46.8004 6.51248 46.6379 7.89373C46.1504 10.1687 44.2816 21.2187 44.2816 21.3812Z" fill="#56ACE0"/>
</g>
<path id="Vector_3" d="M44.4441 10.4938H3.2503C1.70655 10.4938 1.4628 11.9563 1.70655 12.7688L6.3378 33.4063C6.58155 34.2188 7.39405 34.8688 8.2878 34.8688H40.6253C41.4378 34.8688 42.2503 34.2188 42.4128 33.325L45.8253 11.9563C45.9066 11.225 45.2566 10.4938 44.4441 10.4938ZM5.60655 17.4L4.79405 14.3125C4.7128 13.9063 4.95655 13.5813 5.3628 13.5813H11.1316C11.5378 13.5813 11.9441 13.9063 11.9441 14.3125L12.2691 17.4C12.3503 17.8063 12.0253 18.1313 11.6191 18.1313H6.5003C6.09405 18.1313 5.6878 17.8063 5.60655 17.4ZM8.20655 24.9563C7.8003 24.9563 7.39405 24.6313 7.23155 24.225L6.6628 21.8688C6.58155 21.4625 6.8253 21.1375 7.23155 21.1375H11.8628C12.2691 21.1375 12.6753 21.4625 12.6753 21.8688L12.9191 24.1438C13.0003 24.55 12.6753 24.875 12.2691 24.875C12.3503 24.9563 8.20655 24.9563 8.20655 24.9563ZM13.0816 31.8625H9.9128C9.50655 31.8625 9.1003 31.5375 8.9378 31.1313L8.36905 28.775C8.2878 28.3688 8.53155 28.0438 8.9378 28.0438H12.5941C13.0003 28.0438 13.4066 28.3688 13.4066 28.775L13.6503 31.05C13.8128 31.4563 13.4878 31.8625 13.0816 31.8625ZM22.4253 31.05C22.4253 31.4563 22.1003 31.7813 21.6941 31.7813H17.7128C17.3066 31.7813 16.9003 31.4563 16.9003 31.05L16.6566 28.775C16.5753 28.3688 16.9003 28.0438 17.3066 28.0438H21.6941C22.1003 28.0438 22.4253 28.3688 22.4253 28.775V31.05ZM22.4253 24.225C22.4253 24.6313 22.1003 24.9563 21.6941 24.9563H16.9816C16.5753 24.9563 16.1691 24.6313 16.1691 24.225L15.9253 21.95C15.8441 21.5438 16.1691 21.2188 16.5753 21.2188H21.6941C22.1003 21.2188 22.4253 21.5438 22.4253 21.95V24.225ZM22.4253 17.4C22.4253 17.8063 22.1003 18.1313 21.6941 18.1313H16.2503C15.8441 18.1313 15.4378 17.8063 15.4378 17.4L15.0316 14.3125C14.9503 13.9063 15.2753 13.5813 15.6816 13.5813H21.6128C22.0191 13.5813 22.3441 13.9063 22.3441 14.3125C22.4253 14.3125 22.4253 17.4 22.4253 17.4ZM30.7128 31.05C30.6316 31.4563 30.3066 31.7813 29.9003 31.7813H26.3253C25.9191 31.7813 25.5941 31.4563 25.5941 31.05V28.775C25.5941 28.3688 25.9191 28.0438 26.3253 28.0438H30.3066C30.7128 28.0438 31.0378 28.3688 30.9566 28.775L30.7128 31.05ZM31.4441 24.225C31.3628 24.6313 31.0378 24.9563 30.6316 24.9563H26.3253C25.9191 24.9563 25.5941 24.6313 25.5941 24.225V21.95C25.5941 21.5438 25.9191 21.2188 26.3253 21.2188H31.0378C31.4441 21.2188 31.7691 21.5438 31.6878 21.95L31.4441 24.225ZM32.1753 17.4C32.0941 17.8063 31.7691 18.1313 31.3628 18.1313H26.3253C25.9191 18.1313 25.5941 17.8063 25.5941 17.4V14.3125C25.5941 13.9063 25.9191 13.5813 26.3253 13.5813H31.8503C32.2566 13.5813 32.5816 13.9063 32.5003 14.3125L32.1753 17.4ZM39.2441 31.05C39.1628 31.4563 38.7566 31.7813 38.3503 31.7813H34.4503C34.0441 31.7813 33.7191 31.4563 33.8003 31.05L34.0441 28.775C34.1253 28.3688 34.4503 28.0438 34.8566 28.0438H39.0003C39.4066 28.0438 39.7316 28.3688 39.6503 28.775L39.2441 31.05ZM40.3003 24.225C40.2191 24.6313 39.8128 24.9563 39.4066 24.9563H35.1003C34.6941 24.9563 34.3691 24.6313 34.4503 24.225L34.6941 21.95C34.7753 21.5438 35.1003 21.2188 35.5066 21.2188H39.9753C40.3816 21.2188 40.7066 21.5438 40.6253 21.95L40.3003 24.225ZM41.3566 17.4C41.2753 17.8063 40.8691 18.1313 40.4628 18.1313H35.8316C35.4253 18.1313 35.1003 17.8063 35.1816 17.4L35.5066 14.3125C35.5878 13.9063 35.9128 13.5813 36.3191 13.5813H41.1128C41.5191 13.5813 41.8441 13.9063 41.7628 14.3125L41.3566 17.4Z" fill="#194F82"/>
<path id="Vector_4" d="M9.99336 50.875C12.5063 50.875 14.5434 48.8379 14.5434 46.325C14.5434 43.8121 12.5063 41.775 9.99336 41.775C7.48046 41.775 5.44336 43.8121 5.44336 46.325C5.44336 48.8379 7.48046 50.875 9.99336 50.875Z" fill="#62727A"/>
<path id="Vector_5" d="M9.99375 48.6001C11.2502 48.6001 12.2688 47.5815 12.2688 46.3251C12.2688 45.0686 11.2502 44.05 9.99375 44.05C8.7373 44.05 7.71875 45.0686 7.71875 46.3251C7.71875 47.5815 8.7373 48.6001 9.99375 48.6001Z" fill="white"/>
<path id="Vector_6" d="M37.4562 50.875C39.9691 50.875 42.0063 48.8379 42.0063 46.325C42.0063 43.8121 39.9691 41.775 37.4562 41.775C34.9434 41.775 32.9062 43.8121 32.9062 46.325C32.9062 48.8379 34.9434 50.875 37.4562 50.875Z" fill="#62727A"/>
<path id="Vector_7" d="M39.7316 46.3251C39.7316 47.6251 38.6754 48.6001 37.4566 48.6001C36.1566 48.6001 35.1816 47.5438 35.1816 46.3251C35.1816 45.0251 36.2379 44.05 37.4566 44.05C38.6754 44.05 39.7316 45.0251 39.7316 46.3251Z" fill="white"/>
<path id="Vector_8" d="M49.6441 2.125H47.3691V6.675H49.6441C50.0504 6.675 50.3754 6.35 50.3754 5.94375V2.85625C50.3754 2.45 50.0504 2.125 49.6441 2.125Z" fill="#FFC10D"/>
<g id="Group_2">
<path id="Vector_9" d="M9.99414 40.2312C6.66289 40.2312 3.90039 42.9937 3.90039 46.325H16.0879C16.0879 42.9125 13.4066 40.2312 9.99414 40.2312Z" fill="#FFC10D"/>
<path id="Vector_10" d="M37.457 40.2312C34.1258 40.2312 31.3633 42.9937 31.3633 46.325H43.5508C43.5508 42.9125 40.7883 40.2312 37.457 40.2312Z" fill="#FFC10D"/>
</g>
</g>
</svg>
