<svg width="50" height="50" viewBox="0 0 50 50" fill="none" xmlns="http://www.w3.org/2000/svg">
<g id="sign-in-register-svgrepo-com 1" clip-path="url(#clip0_594_2212)">
<path id="Vector" d="M22.3904 24.2088C22.0282 23.2948 22.9504 22.0596 24.1444 22.4467L35.2854 26.1521H45.8252C46.591 26.1521 47.2168 25.5346 47.2168 24.777V4.16651C47.2168 3.40902 46.5992 2.79138 45.8252 2.79138H4.16793C3.40216 2.79138 2.77637 3.40889 2.77637 4.16651V24.7852C2.77637 25.5427 3.39388 26.1603 4.16793 26.1603H23.0326L22.3904 24.2088Z" fill="white"/>
<path id="Vector_2" d="M25.9072 25.9626L27.2001 29.8245H32.4782C33.244 29.8245 33.8698 30.442 33.8698 31.2161C33.8698 31.9901 33.2522 32.6076 32.4782 32.6076H28.1305L28.7399 34.4603H31.0949C31.8607 34.4603 32.4865 35.0779 32.4865 35.8518C32.4865 36.6176 31.869 37.2434 31.0949 37.2434H29.6704L32.1736 44.7201L34.2981 39.7878C34.8416 38.5938 36.2496 38.8244 36.5543 39.3514L42.8536 45.6424L45.6203 42.8757L39.321 36.593C38.7199 36.0331 38.7033 34.8309 39.7574 34.3286L44.6979 32.2124L25.9072 25.9626Z" fill="#FFC10D"/>
<path id="Vector_3" d="M44.4336 5.54993H5.55957V23.3772H44.4336V5.54993Z" fill="#56ACE0"/>
<g id="Group">
<path id="Vector_4" d="M10.1708 13.8253C9.52854 13.6689 9.12502 13.5289 8.95204 13.4136C8.77092 13.2983 8.68851 13.1501 8.68851 12.9525C8.68851 12.755 8.78735 12.3103 9.49542 12.302C10.1129 12.2937 10.7141 12.5161 11.3069 12.9608L12.0644 11.8656C11.101 11.0752 9.99766 10.9763 9.54471 10.9763C8.85307 10.9763 7.14028 11.248 7.14028 12.9772C7.14028 13.6195 7.3214 14.0807 7.68378 14.3854C8.04603 14.6818 8.62253 14.9289 9.39645 15.11C9.89054 15.2253 10.2199 15.357 10.3928 15.4722C10.5575 15.5875 10.6397 15.7439 10.6397 15.958C10.6397 16.1722 10.5575 16.5755 9.75042 16.6168C9.14107 16.6498 8.45771 16.3039 7.74123 15.6616L6.84375 16.7651C7.70008 17.5556 8.65526 17.9838 9.71756 17.9425C11.8749 17.8602 12.1796 16.518 12.1796 15.9169C12.1796 15.3158 11.9984 14.8547 11.6443 14.5418C11.2989 14.2205 10.8048 13.9818 10.1708 13.8253Z" fill="#194F82"/>
<path id="Vector_5" d="M14.8812 11.1986H13.4072V17.8107H14.8812V11.1986Z" fill="#194F82"/>
<path id="Vector_6" d="M20.8347 16.2627H20.8265C20.4806 16.4604 20.0607 16.5591 19.5502 16.5591C18.068 16.5591 17.6728 15.1181 17.6728 14.4923C17.6728 13.8748 18.1175 12.4173 19.6737 12.4173C19.9701 12.4173 21.0159 12.8372 21.3041 13.0925L22.0699 11.989C21.37 11.3715 20.5465 11.0503 19.5913 11.0503C18.3726 11.0503 16.1494 11.8738 16.1494 14.484C16.1494 16.9213 18.208 17.9425 19.5913 17.8931C20.7523 17.8437 21.6664 17.5308 22.3251 16.7979V14.4593H20.843V16.2627H20.8347Z" fill="#194F82"/>
<path id="Vector_7" d="M28.2697 15.4557L25.0172 11.1986H23.6338V17.8107H25.1078V13.6689L28.2697 17.8107H29.7437V11.1986H28.2697V15.4557Z" fill="#194F82"/>
<path id="Vector_8" d="M35.3597 11.1986H33.8857V17.8107H35.3597V11.1986Z" fill="#194F82"/>
<path id="Vector_9" d="M38.472 13.6689L41.6339 17.8107H43.1079V11.1986H41.6339V15.4557L38.3732 11.1986H36.998V17.8107H38.472V13.6689Z" fill="#194F82"/>
<path id="Vector_10" d="M49.0452 30.7304L43.6436 28.9353H45.8256C48.1229 28.9353 49.9921 27.0661 49.9921 24.7852V4.16653C49.9923 1.86921 48.1231 0 45.8256 0H4.16848C1.87117 0 0.00195312 1.86921 0.00195312 4.16653V24.7852C0.00195312 27.0661 1.87117 28.9353 4.16848 28.9353H23.9637L30.6829 49.0434C31.2428 50.4515 32.8815 50.1469 33.2685 49.1504L36.027 42.7524L41.8651 48.5658C42.4086 49.1093 43.2813 49.1093 43.8248 48.5658L48.5596 43.8393C49.0701 43.3946 49.1771 42.4806 48.5596 41.8713L42.7297 36.0579L49.1359 33.3159C50.2393 33.003 50.3628 31.109 49.0452 30.7304ZM22.391 24.2252L23.0415 26.1767H4.16848C3.41099 26.1603 2.77692 25.5345 2.77692 24.7769V4.16653C2.77692 3.40904 3.39443 2.7914 4.16848 2.7914H45.8339C46.5997 2.7914 47.2255 3.40891 47.2255 4.16653V24.7852C47.2255 25.5427 46.6079 26.1603 45.8339 26.1603H35.2941L24.1531 22.4632C22.9426 22.0761 22.0286 23.2948 22.391 24.2252ZM39.757 34.3204C38.703 34.8226 38.7196 36.0249 39.3206 36.5849L45.6199 42.8676L42.8532 45.6343L36.5539 39.3433C36.2493 38.8245 34.8413 38.5858 34.2978 39.7796L32.1733 44.7119L29.67 37.2352H31.0946C31.8603 37.2352 32.4861 36.6177 32.4861 35.8437C32.4861 35.0696 31.8686 34.4521 31.0946 34.4521H28.7313L28.1138 32.5994H32.4533C33.219 32.5994 33.8448 31.9819 33.8448 31.2079C33.8448 30.4421 33.2272 29.8163 32.4533 29.8163H27.1751L25.8823 25.9545L44.6729 32.2043L39.757 34.3204Z" fill="#194F82"/>
</g>
</g>
<defs>
<clipPath id="clip0_594_2212">
<rect width="50" height="50" fill="white"/>
</clipPath>
</defs>
</svg>
