<svg width="16" height="16" viewBox="0 0 16 16" fill="none" xmlns="http://www.w3.org/2000/svg">
<g id="game-icons:polar-star" clip-path="url(#clip0_594_1827)">
<path id="Vector" d="M7.99625 0.617676C7.54625 3.42486 7.16812 5.09361 6.13062 6.13111C5.09312 7.16861 3.42438 7.54674 0.617188 7.99674C3.42438 8.44674 5.09312 8.82486 6.13062 9.86549C7.16812 10.903 7.54625 12.5717 7.99625 15.3811C8.44625 12.5717 8.82438 10.903 9.86188 9.86236C10.9025 8.82486 12.5713 8.44674 15.3806 7.99674C12.5713 7.54674 10.9025 7.16861 9.865 6.13111C8.82438 5.09361 8.44625 3.42486 7.99625 0.617676ZM13.2181 2.78111C11.7869 3.81549 10.6869 4.55924 9.70563 4.97486C9.865 5.26861 10.0494 5.51861 10.2619 5.73111C10.4744 5.94361 10.7244 6.12799 11.0213 6.29049C11.44 5.30924 12.1838 4.20924 13.2181 2.78111ZM2.7825 2.78299C3.81812 4.21236 4.55875 5.30924 4.97437 6.28736C5.26812 6.12799 5.51812 5.94361 5.73062 5.73111C5.94312 5.51861 6.1275 5.26861 6.28687 4.97486C5.30875 4.55924 4.21187 3.81861 2.7825 2.78299ZM11.0213 9.70299C10.7244 9.86549 10.4744 10.0499 10.2619 10.2624C10.0494 10.4749 9.865 10.7249 9.7025 11.0217C10.6869 11.4374 11.7869 12.1811 13.2181 13.2186C12.1806 11.7874 11.4369 10.6874 11.0213 9.70299ZM4.97437 9.70611C4.55875 10.6874 3.815 11.7874 2.78062 13.2186C4.20875 12.1842 5.30875 11.4405 6.29 11.0217C6.1275 10.7249 5.94312 10.4749 5.73062 10.2624C5.51812 10.0499 5.26812 9.86549 4.97437 9.70611Z" fill="#FFE600"/>
</g>
<defs>
<clipPath id="clip0_594_1827">
<rect width="16" height="16" fill="white"/>
</clipPath>
</defs>
</svg>
