<svg width="40" height="40" viewBox="0 0 40 40" fill="none" xmlns="http://www.w3.org/2000/svg">
<path d="M27.2362 32.9772C27.2362 32.9772 27.2362 32.9772 27.2362 32.9772C26.6857 33.5273 25.2272 34.5342 23.7605 35.2627C23.0282 35.6265 22.3038 35.9157 21.6979 36.045C21.3949 36.1097 21.1285 36.1327 20.9091 36.109C20.6903 36.0853 20.5284 36.0164 20.4183 35.9063C20.3083 35.7962 20.2394 35.6342 20.2157 35.4154C20.192 35.196 20.2151 34.9296 20.2798 34.6265C20.4091 34.0205 20.6984 33.2961 21.0621 32.5638C21.7906 31.0969 22.7973 29.6383 23.3473 29.0883C23.3473 29.0883 23.3473 29.0883 23.3473 29.0882L27.8972 24.5383L31.7862 28.4266L27.2362 32.9772Z" fill="#FFE600" stroke="#4378FF" stroke-width="0.3"/>
<path d="M34.541 17.8952L34.541 17.8951C35.6144 16.8217 37.3552 16.8217 38.4293 17.8952C39.5028 18.9693 39.5027 20.71 38.4293 21.7833L38.4293 21.7833L32.936 27.2773L29.0471 23.3889L34.541 17.8952ZM31.1118 24.2375L31.2179 24.3435L31.3239 24.2375L35.2429 20.3165L35.3489 20.2104L35.2428 20.1043L34.5404 19.402L34.4343 19.2959L34.3283 19.402L30.408 23.3223L30.3018 23.4284L30.408 23.5345L31.1118 24.2375Z" fill="#FFE600" stroke="#4378FF" stroke-width="0.3"/>
<path d="M29.275 35.015C28.1757 36.1131 23.9959 39 21.0882 39C21.0876 39 21.0882 39 21.0876 39C19.7227 39 18.8623 38.4258 18.3807 37.9441C14.884 34.4461 21.2404 27.1191 21.3098 27.0504L21.6319 26.7283C21.3237 26.3881 21.1909 25.9198 21.1909 24.9859C21.1909 24.2956 21.1909 23.0128 21.1909 21.8294C22.0787 20.8436 22.4016 20.9663 23.1521 17.0954C24.6703 17.0954 24.5723 15.1229 25.288 13.3732C25.8723 11.9483 25.3827 11.3707 24.8918 11.1345C25.2934 5.94208 25.2934 2.36606 19.3999 1.25676C17.2633 -0.574329 14.0401 0.0473898 12.5126 0.352859C10.9863 0.658405 9.60953 0.352859 9.60953 0.352859L9.87164 2.81301C7.6364 5.4952 8.75437 9.07122 8.39422 11.1658C7.92593 11.4213 7.50304 12.0103 8.0607 13.3732C8.77711 15.1229 8.67836 17.0954 10.1966 17.0954C10.9477 20.9663 11.2705 20.8435 12.1584 21.8294C12.1584 23.0129 12.1584 24.2956 12.1584 24.9859C12.1584 26.9584 11.488 26.9925 9.96039 27.8462C6.27758 29.9048 1.4782 31.1008 0.618903 37.5345C0.461559 38.7112 7.2175 39.9959 16.675 40C26.1312 39.9959 32.8878 38.7112 32.7311 37.5345C32.4836 35.6828 31.8992 34.2886 31.1155 33.1747L29.275 35.015Z" fill="#4378FF"/>
</svg>
