<svg width="52" height="52" viewBox="0 0 52 52" fill="none" xmlns="http://www.w3.org/2000/svg">
<g id="coin-money-svgrepo-com 1" clip-path="url(#clip0_594_2309)">
<path id="Vector" d="M25.9983 13.089C20.2869 13.089 15.4352 16.825 13.7259 21.9735H16.9194C17.7177 21.9735 18.3626 22.6183 18.3626 23.4167C18.3626 24.2151 17.7177 24.8599 16.9194 24.8599H13.122C13.0913 25.2386 13.0605 25.6173 13.0605 26.0063C13.0605 26.3952 13.081 26.774 13.122 27.1527H15.7934C16.5918 27.1527 17.2367 27.7975 17.2367 28.5959C17.2367 29.3943 16.5918 30.0391 15.7934 30.0391H13.7259C15.425 35.1876 20.2766 38.9236 25.9983 38.9236C33.1223 38.9236 38.9258 33.1302 38.9258 25.9961C38.9258 18.8619 33.1223 13.089 25.9983 13.089Z" fill="#FFC10D"/>
<path id="Vector_2" d="M25.9985 10.1924C17.2778 10.1924 10.1846 17.2856 10.1846 26.0063C10.1846 34.7271 17.2778 41.8305 25.9985 41.8305C34.7192 41.8305 41.8125 34.7373 41.8125 26.0166C41.8125 17.2959 34.7192 10.1924 25.9985 10.1924ZM25.9985 38.9339C20.2871 38.9339 15.4354 35.1979 13.7261 30.0494H15.7937C16.592 30.0494 17.2369 29.4046 17.2369 28.6062C17.2369 27.8078 16.592 27.163 15.7937 27.163H13.1222C13.0915 26.7843 13.0608 26.4055 13.0608 26.0166C13.0608 25.6276 13.0812 25.2489 13.1222 24.8702H16.9196C17.718 24.8702 18.3628 24.2254 18.3628 23.427C18.3628 22.6286 17.718 21.9838 16.9196 21.9838H13.7261C15.4252 16.8353 20.2768 13.0993 25.9985 13.0993C33.1225 13.0993 38.9261 18.8926 38.9261 26.0268C38.9261 33.161 33.1225 38.9339 25.9985 38.9339Z" fill="#56ACE0"/>
<g id="Group">
<path id="Vector_3" d="M25.9986 20.0698C27.2371 20.0698 28.2504 21.0831 28.2504 22.3216C28.2504 23.12 28.8952 23.7648 29.6936 23.7648C30.492 23.7648 31.1368 23.12 31.1368 22.3216C31.1368 19.9879 29.5708 18.0124 27.4316 17.3881V16.3747C27.4316 15.5764 26.7867 14.9315 25.9883 14.9315C25.19 14.9315 24.5451 15.5764 24.5451 16.3747V17.3881C22.4059 18.0124 20.8398 19.9879 20.8398 22.3216C20.8398 25.1569 23.1428 27.4701 25.9883 27.4701C25.9474 27.4803 25.9883 27.4701 25.9986 27.4701C27.145 27.5725 28.2402 28.5244 28.2402 29.7015C28.2402 30.9502 27.2268 31.9533 25.9883 31.9533C24.7498 31.9533 23.7365 30.94 23.7365 29.7015C23.7365 28.9031 23.0917 28.2582 22.2933 28.2582C21.4949 28.2582 20.8501 28.9031 20.8501 29.7015C20.8501 32.0352 22.4161 34.0106 24.5554 34.635V35.6381C24.5554 36.4365 25.2002 37.0813 25.9986 37.0813C26.7969 37.0813 27.4418 36.4365 27.4418 35.6381V34.635C29.581 34.0106 31.1471 32.0352 31.1471 29.7015C31.1471 26.8662 28.6496 24.5734 25.8041 24.5734C25.845 24.5632 25.8041 24.5734 25.7939 24.5734C24.6475 24.4711 23.7467 23.4987 23.7467 22.3318C23.7467 21.0831 24.7498 20.0698 25.9986 20.0698Z" fill="#194F82"/>
<path id="Vector_4" d="M50.4003 32.3524C49.6429 32.1068 48.824 32.5162 48.5784 33.2736C44.5762 45.3823 31.4747 51.974 19.366 47.9719C7.25734 43.9596 0.665629 30.858 4.66774 18.7494C8.66985 6.65091 21.7714 0.0592014 33.8801 4.06131C37.7696 5.35099 41.1371 7.59258 43.8086 10.5814L39.3356 10.7144C38.5373 10.5814 37.8003 11.1136 37.6775 11.9018C37.5444 12.6899 38.0767 13.4371 38.8648 13.5599L46.9816 14.0308C47.8107 14.1638 48.5067 13.6213 48.6398 12.8434L49.9397 4.91086C50.0728 4.12272 49.5405 3.37553 48.7524 3.2527C47.954 3.11964 47.217 3.65189 47.0942 4.44003L46.3265 9.06651C43.2661 5.51476 39.2742 2.80234 34.7808 1.31818C21.1675 -3.18548 6.42826 4.22508 1.9246 17.8486C-2.57905 31.4619 4.8008 46.3342 18.4551 50.7151C32.5187 55.2187 46.8076 47.4499 51.3215 34.1846C51.5774 33.4169 51.1577 32.5981 50.4003 32.3524Z" fill="#194F82"/>
</g>
</g>
<defs>
<clipPath id="clip0_594_2309">
<rect width="52" height="52" fill="white"/>
</clipPath>
</defs>
</svg>
