<svg width="20" height="17" viewBox="0 0 20 17" fill="none" xmlns="http://www.w3.org/2000/svg">
<path d="M19.7926 8.54564L15.0681 17H8.38379L13.1096 8.54564L8.38379 0.0913086H15.0681L19.7926 8.54564Z" fill="#194F82"/>
<path d="M10.6142 7.85944C10.9918 7.65261 11.4657 7.79095 11.6725 8.16862C11.8795 8.54628 11.741 9.02011 11.3633 9.22695C10.9857 9.43378 10.5118 9.29545 10.305 8.91778C10.0982 8.54012 10.2365 8.06628 10.6142 7.85944Z" fill="#FFC10D"/>
<path d="M9.56921 5.95332C9.94688 5.74648 10.4207 5.88482 10.6275 6.26249C10.8344 6.64016 10.696 7.11399 10.3184 7.32082C9.94071 7.52765 9.46688 7.38932 9.26005 7.01166C9.05321 6.63399 9.19171 6.16015 9.56921 5.95332Z" fill="#FFC10D"/>
<path d="M8.5253 4.04715C8.90297 3.84015 9.3768 3.97865 9.58363 4.35615C9.79047 4.73381 9.65214 5.20764 9.27447 5.41448C8.8968 5.62131 8.42297 5.48298 8.21614 5.10531C8.0093 4.72765 8.14763 4.25398 8.5253 4.04715Z" fill="#FFC10D"/>
<path d="M7.48034 2.14094C7.85801 1.93411 8.33184 2.07244 8.53868 2.4501C8.74551 2.82777 8.60718 3.30161 8.22951 3.50844C7.85185 3.71544 7.37801 3.57694 7.17118 3.19944C6.96435 2.82161 7.10284 2.34777 7.48034 2.14094Z" fill="#FFC10D"/>
<path d="M6.43644 0.234642C6.8141 0.0276424 7.28794 0.166139 7.49477 0.543806C7.70177 0.921473 7.56327 1.3953 7.1856 1.60214C6.80794 1.80897 6.3341 1.67064 6.12727 1.29297C5.92043 0.915472 6.05877 0.441642 6.43644 0.234642Z" fill="#FFC10D"/>
<path d="M9.56921 11.1381C9.94688 11.3451 10.4207 11.2066 10.6275 10.8289C10.8344 10.4512 10.696 9.97742 10.3184 9.77058C9.94071 9.56375 9.46688 9.70208 9.26005 10.0796C9.05321 10.4573 9.19171 10.9311 9.56921 11.1381Z" fill="#FFC10D"/>
<path d="M8.5253 13.0443C8.90297 13.2513 9.3768 13.1128 9.58363 12.7352C9.79047 12.3575 9.65214 11.8837 9.27447 11.6768C8.8968 11.47 8.42297 11.6083 8.21614 11.986C8.0093 12.3635 8.14763 12.8373 8.5253 13.0443Z" fill="#FFC10D"/>
<path d="M7.48034 14.9505C7.85801 15.1573 8.33184 15.019 8.53868 14.6413C8.74551 14.2636 8.60718 13.7898 8.22951 13.583C7.85185 13.3761 7.37801 13.5145 7.17118 13.8921C6.96435 14.2696 7.10284 14.7435 7.48034 14.9505Z" fill="#FFC10D"/>
<path d="M6.43644 16.8566C6.8141 17.0634 7.28794 16.9251 7.49477 16.5474C7.70177 16.1697 7.56327 15.6959 7.1856 15.4891C6.80794 15.2823 6.3341 15.4206 6.12727 15.7982C5.92043 16.1757 6.05877 16.6496 6.43644 16.8566Z" fill="#FFC10D"/>
<path d="M7.8407 7.85944C8.21837 7.65261 8.6922 7.79095 8.89903 8.16862C9.10587 8.54628 8.96753 9.02011 8.58986 9.22695C8.2122 9.43378 7.73836 9.29545 7.53153 8.91778C7.3247 8.54012 7.4632 8.06628 7.8407 7.85944Z" fill="#FFC10D"/>
<path d="M6.79678 5.95332C7.17445 5.74648 7.64828 5.88482 7.85512 6.26249C8.06212 6.64016 7.92362 7.11399 7.54595 7.32082C7.16829 7.52765 6.69445 7.38932 6.48762 7.01166C6.28079 6.63399 6.41912 6.16015 6.79678 5.95332Z" fill="#FFC10D"/>
<path d="M5.75183 4.04715C6.12949 3.84015 6.60333 3.97865 6.81016 4.35615C7.01716 4.73381 6.87867 5.20764 6.501 5.41448C6.12333 5.62131 5.6495 5.48298 5.44266 5.10531C5.23583 4.72781 5.37433 4.25398 5.75183 4.04715Z" fill="#FFC10D"/>
<path d="M4.70792 2.14094C5.08559 1.93411 5.55942 2.07244 5.76625 2.4501C5.97309 2.82777 5.83475 3.30161 5.45709 3.50844C5.07942 3.71544 4.60559 3.57694 4.39875 3.19944C4.19192 2.82161 4.33025 2.34777 4.70792 2.14094Z" fill="#FFC10D"/>
<path d="M3.663 0.234642C4.04067 0.0276424 4.5145 0.166139 4.72133 0.543806C4.92817 0.921473 4.78983 1.3953 4.41216 1.60214C4.0345 1.80897 3.56066 1.67064 3.35383 1.29297C3.147 0.915472 3.28533 0.441642 3.663 0.234642Z" fill="#FFC10D"/>
<path d="M6.79678 11.1381C7.17445 11.3451 7.64828 11.2066 7.85512 10.8289C8.06212 10.4512 7.92362 9.97742 7.54595 9.77058C7.16829 9.56375 6.69445 9.70208 6.48762 10.0796C6.28079 10.4573 6.41912 10.9311 6.79678 11.1381Z" fill="#FFC10D"/>
<path d="M5.75183 13.0443C6.12949 13.2513 6.60333 13.1128 6.81016 12.7352C7.01716 12.3575 6.87867 11.8837 6.501 11.6768C6.12333 11.47 5.6495 11.6083 5.44266 11.986C5.23583 12.3635 5.37433 12.8373 5.75183 13.0443Z" fill="#FFC10D"/>
<path d="M4.70792 14.9505C5.08559 15.1573 5.55942 15.019 5.76625 14.6413C5.97309 14.2636 5.83475 13.7898 5.45709 13.583C5.07942 13.3761 4.60559 13.5145 4.39875 13.8921C4.19192 14.2696 4.33025 14.7435 4.70792 14.9505Z" fill="#FFC10D"/>
<path d="M3.663 16.8566C4.04067 17.0634 4.5145 16.9251 4.72133 16.5474C4.92817 16.1697 4.78983 15.6959 4.41216 15.4891C4.0345 15.2823 3.56066 15.4206 3.35383 15.7982C3.147 16.1757 3.28533 16.6496 3.663 16.8566Z" fill="#FFC10D"/>
<path d="M4.78995 7.72085C5.16762 7.51385 5.64145 7.65235 5.84828 8.02985C6.05511 8.40752 5.91678 8.88135 5.53912 9.08818C5.16145 9.29502 4.68762 9.15669 4.48078 8.77902C4.27395 8.40152 4.41228 7.92769 4.78995 7.72085Z" fill="#FFC10D"/>
<path d="M3.746 5.81465C4.12367 5.60781 4.5975 5.74614 4.80434 6.12381C5.01117 6.50148 4.87284 6.97532 4.49517 7.18215C4.11751 7.38898 3.64367 7.25064 3.43684 6.87298C3.23001 6.49531 3.36834 6.02148 3.746 5.81465Z" fill="#FFC10D"/>
<path d="M2.70115 3.90852C3.07882 3.70168 3.55266 3.84002 3.75949 4.21769C3.96632 4.59536 3.82799 5.06919 3.45032 5.27602C3.07265 5.48285 2.59882 5.34452 2.39199 4.96686C2.18499 4.58919 2.32349 4.11535 2.70115 3.90852Z" fill="#FFC10D"/>
<path d="M1.65714 2.00215C2.03481 1.79531 2.50864 1.93364 2.71547 2.31131C2.92231 2.68898 2.78397 3.16282 2.40631 3.36965C2.02864 3.57648 1.5548 3.43814 1.34797 3.06048C1.14114 2.68298 1.27947 2.20915 1.65714 2.00215Z" fill="#FFC10D"/>
<path d="M0.612183 0.0960163C0.98985 -0.110817 1.46368 0.0275232 1.67052 0.40519C1.87752 0.782857 1.73902 1.25669 1.36135 1.46352C0.983683 1.67035 0.509848 1.53202 0.303015 1.15436C0.0961815 0.776856 0.234683 0.303016 0.612183 0.0960163Z" fill="#FFC10D"/>
<path d="M3.746 10.9995C4.12367 11.2064 4.5975 11.068 4.80434 10.6904C5.01117 10.3127 4.87284 9.83886 4.49517 9.63203C4.11751 9.4252 3.64367 9.56353 3.43684 9.94119C3.23001 10.3187 3.36834 10.7925 3.746 10.9995Z" fill="#FFC10D"/>
<path d="M2.70115 12.9057C3.07882 13.1126 3.55266 12.9742 3.75949 12.5966C3.96632 12.2189 3.82799 11.7451 3.45032 11.5382C3.07265 11.3312 2.59882 11.4697 2.39199 11.8472C2.18499 12.2249 2.32349 12.6987 2.70115 12.9057Z" fill="#FFC10D"/>
<path d="M1.65714 14.8119C2.03481 15.0187 2.50864 14.8804 2.71547 14.5027C2.92231 14.125 2.78397 13.6512 2.40631 13.4444C2.02864 13.2374 1.5548 13.3759 1.34797 13.7535C1.14114 14.131 1.27947 14.6049 1.65714 14.8119Z" fill="#FFC10D"/>
<path d="M0.612183 16.718C0.98985 16.925 1.46368 16.7865 1.67052 16.4088C1.87752 16.0311 1.73902 15.5573 1.36135 15.3505C0.983683 15.1435 0.509848 15.282 0.303015 15.6597C0.0961815 16.0372 0.234683 16.511 0.612183 16.718Z" fill="#FFC10D"/>
</svg>
