<svg width="38" height="38" viewBox="0 0 38 38" fill="none" xmlns="http://www.w3.org/2000/svg">
<g id="running-speed-svgrepo-com 1">
<g id="Group">
<g id="Group_2">
<path id="Vector" d="M4.04688 9.34489V10.6903H13.4958V9.34489H4.04688Z" fill="#FFE500"/>
<path id="Vector_2" d="M4.25781 8.85954V10.205H13.7068V8.85954H4.25781Z" fill="#5A3392"/>
<path id="Vector_3" d="M2.12891 14.7472V16.0927H11.5779V14.7472H2.12891Z" fill="#3CDEF6"/>
<g id="Group_3">
<path id="Vector_4" d="M2.33984 14.2619V15.6073H11.7888V14.2619H2.33984Z" fill="#5A3392"/>
<path id="Vector_5" d="M21.0621 7.5141C20.9349 7.52659 20.8138 7.57495 20.7131 7.65335L13.9752 13.0556C13.6699 13.2697 13.5958 13.6907 13.8098 13.9962C14.0238 14.3014 14.4448 14.3754 14.7503 14.1615C14.7719 14.1463 14.7927 14.1298 14.8125 14.1122L21.2513 8.9591L27.2117 11.3413V18.9862C27.2103 19.359 27.5115 19.6625 27.8843 19.6639C27.886 19.6639 27.8878 19.6639 27.8895 19.6639H37.3284C37.7028 19.6601 38.0032 19.3537 37.9994 18.9794C37.9958 18.6104 37.6975 18.3121 37.3284 18.3085H28.5572V10.8829C28.5587 10.6077 28.3931 10.3594 28.1388 10.2549L21.3909 7.55376C21.2864 7.51326 21.1734 7.49925 21.0623 7.51326L21.0621 7.5141Z" fill="#5A3392"/>
<path id="Vector_6" d="M27.4697 10.5442C27.3182 10.5636 27.1777 10.634 27.0712 10.7436L12.6386 25.1863L1.94363 30.5288C1.59755 30.6676 1.42945 31.0607 1.56818 31.4067C1.70692 31.7529 2.10001 31.9208 2.44617 31.782C2.47917 31.7689 2.51115 31.753 2.5417 31.7347L13.3363 26.3424C13.4027 26.3092 13.4633 26.2656 13.5155 26.2128L28.0278 11.7004C28.2969 11.4423 28.306 11.0149 28.0478 10.7457C27.8984 10.5899 27.6836 10.515 27.4697 10.5439V10.5442Z" fill="#5A3392"/>
<path id="Vector_7" d="M15.999 22.694C15.6282 22.7334 15.3595 23.066 15.3989 23.4367C15.4156 23.5939 15.4869 23.7404 15.6004 23.8502L21.4014 29.661L15.4011 33.2593C15.0653 33.4215 14.9247 33.8253 15.087 34.1611C15.2493 34.4969 15.6529 34.6375 15.9887 34.4753C16.0237 34.4583 16.0573 34.4383 16.0889 34.4156L22.8367 30.3689C23.1563 30.1769 23.2599 29.7622 23.068 29.4424C23.0395 29.3951 23.0054 29.3514 22.9663 29.3123L16.5473 22.8934C16.4043 22.7473 16.2027 22.6738 15.9991 22.6938L15.999 22.694Z" fill="#5A3392"/>
</g>
</g>
<path id="Vector_8" d="M30.5898 3.4572C28.7335 3.4572 27.2109 4.97984 27.2109 6.83607C27.2109 8.69231 28.7336 10.2051 30.5898 10.2051C32.4461 10.2051 33.9587 8.69248 33.9587 6.83607C33.9587 4.97984 32.4461 3.4572 30.5898 3.4572Z" fill="#5A3392"/>
<g id="Group_4">
<path id="Vector_9" d="M30.5898 4.81291C31.7163 4.81291 32.6131 5.70956 32.6131 6.83633C32.6131 7.96293 31.7163 8.85973 30.5898 8.85973C29.4632 8.85973 28.5664 7.96293 28.5664 6.83633C28.5664 5.70973 29.4632 4.81291 30.5898 4.81291Z" fill="#FFE500"/>
<path id="Vector_10" d="M0 20.1494V21.4948H9.44895V20.1494H0Z" fill="#FFE500"/>
</g>
<path id="Vector_11" d="M0.210938 19.6642V21.0096H9.65988V19.6642H0.210938Z" fill="#5A3392"/>
<path id="Vector_12" d="M31.0985 5.33504C31.8014 5.33504 32.361 5.89463 32.361 6.5976C32.361 7.30056 31.8014 7.86015 31.0985 7.86015C30.3955 7.86015 29.8359 7.30039 29.8359 6.5976C29.8359 5.89463 30.3954 5.33504 31.0985 5.33504Z" fill="#FFE500"/>
</g>
</g>
</svg>
