<svg width="72" height="72" viewBox="0 0 72 72" fill="none" xmlns="http://www.w3.org/2000/svg">
<path d="M29.7852 42.3982L37.0147 46.5722L22.3338 72.0001L18.1201 62.6025L29.7852 42.3982Z" fill="#FF3838"/>
<path d="M29.7854 42.3981L22.5559 38.2241L7.875 63.652L18.1204 62.6024L29.7854 42.3981Z" fill="#5E0000"/>
<path d="M40.0998 42.3982L32.8701 46.5722L47.5511 72.0001L51.7647 62.6025L40.0998 42.3982Z" fill="#5E0000"/>
<path d="M40.0996 42.3981L47.3291 38.2241L62.0099 63.652L51.7645 62.6024L40.0996 42.3981Z" fill="#FF3838"/>
<path d="M59.6108 24.8899C59.6108 38.6361 48.4673 49.7797 34.7209 49.7797C20.9746 49.7797 9.83105 38.6361 9.83105 24.8899C9.83105 11.1436 20.9746 0 34.7209 0C48.4673 0 59.6108 11.1436 59.6108 24.8899Z" fill="url(#paint0_linear_620_194)"/>
<path d="M54.1496 24.8896C54.1496 35.6199 45.4509 44.3186 34.7209 44.3186C23.9905 44.3186 15.292 35.6199 15.292 24.8896C15.292 14.1595 23.9905 5.46094 34.7209 5.46094C45.4509 5.46094 54.1496 14.1595 54.1496 24.8896Z" fill="#A88300"/>
<path d="M55.2322 26.964C55.2322 37.7193 46.5134 46.438 35.7582 46.438C25.003 46.438 16.2842 37.7193 16.2842 26.964C16.2842 16.2088 25.003 7.48999 35.7582 7.48999C46.5134 7.48999 55.2322 16.2088 55.2322 26.964Z" fill="#B11010"/>
<path d="M54.1951 24.8897C54.1951 35.6449 45.4764 44.3637 34.7211 44.3637C23.9659 44.3637 15.2471 35.6449 15.2471 24.8897C15.2471 14.1346 23.9659 5.41577 34.7211 5.41577C45.4764 5.41577 54.1951 14.1346 54.1951 24.8897Z" fill="#D50E0E"/>
<path d="M34.8261 11.342L39.0268 19.7437L47.4286 20.7939L41.6593 27.2631L43.2278 36.5469L34.8261 32.3461L26.4244 36.5469L28.0068 27.2631L22.2236 20.7939L30.6253 19.7437L34.8261 11.342Z" fill="url(#paint1_linear_620_194)"/>
<defs>
<linearGradient id="paint0_linear_620_194" x1="33.0311" y1="9.07182" x2="36.4082" y2="71.9212" gradientUnits="userSpaceOnUse">
<stop stop-color="#E29B7C"/>
<stop offset="1" stop-color="#FF6969"/>
</linearGradient>
<linearGradient id="paint1_linear_620_194" x1="34.8265" y1="11.342" x2="34.8265" y2="36.5469" gradientUnits="userSpaceOnUse">
<stop stop-color="#E87272"/>
<stop offset="1" stop-color="white"/>
</linearGradient>
</defs>
</svg>
