<svg width="230" height="256" viewBox="0 0 230 256" fill="none" xmlns="http://www.w3.org/2000/svg">
<path id="Vector" d="M48.9061 0.775146C39.8182 0.775146 31.6666 2.6478 26.1643 5.40171C20.7116 8.15561 18.6186 11.24 18.6186 13.4431C18.6186 15.5912 20.7116 18.7361 26.1643 21.4294C31.6666 24.1833 39.8182 26.1111 48.9061 26.1111C57.994 26.1111 66.1455 24.1833 71.5983 21.4294C77.1061 18.7361 79.199 15.5912 79.199 13.4431C79.199 11.24 77.1061 8.15561 71.5983 5.40171C66.1455 2.6478 57.994 0.775146 48.9061 0.775146ZM137.031 18.4001C127.943 18.4001 119.792 20.2728 114.339 23.0267C108.831 25.7806 106.738 28.865 106.738 31.0681C106.738 33.2162 108.831 36.3611 114.339 39.0544C119.792 41.8083 127.943 43.7306 137.031 43.7306C139.565 43.7306 141.988 43.5653 144.301 43.2899C146.67 40.2662 150.03 37.5839 153.94 35.7993C158.456 33.7614 163.689 32.1091 167.324 31.0681C167.324 28.865 165.231 25.7806 159.723 23.0267C154.271 20.2728 146.119 18.4001 137.031 18.4001ZM18.6186 28.529C18.3983 36.6035 27.1447 39.8971 32.658 41.5275C42.517 44.3915 55.2951 44.3915 65.1541 41.5275C72.2041 39.5116 79.144 35.6231 79.199 28.529C70.3315 34.3838 57.3881 35.9591 48.9061 36.0196C38.1658 35.1219 26.8858 34.0093 18.6186 28.529ZM181.094 40.0458C172.006 40.0458 163.854 41.9185 158.401 44.722C152.894 47.4208 150.801 50.5603 150.801 52.7083C150.801 54.9114 152.894 57.9958 158.401 60.7497C163.854 63.5036 172.006 65.3763 181.094 65.3763C190.181 65.3763 198.333 63.5036 203.786 60.7497C209.294 57.9958 211.387 54.9114 211.387 52.7083C211.387 50.5603 209.294 47.4208 203.786 44.722C198.333 41.9185 190.181 40.0458 181.094 40.0458ZM106.738 46.154V47.4759C108.335 48.0267 109.878 48.6876 111.31 49.4036C116.267 51.8821 120.563 55.3521 122.766 59.7032C128.384 61.0802 134.718 61.5759 140.887 61.1903V53.5345C139.62 53.5896 138.353 53.6446 137.031 53.6446C126.621 53.6446 117.148 51.6067 109.878 47.9716C108.776 47.4208 107.73 46.8149 106.738 46.154ZM18.6186 46.2091C18.4313 54.2505 27.1667 57.5552 32.658 59.2075C36.4033 60.254 40.5893 60.97 44.8854 61.1903C45.9869 58.3263 47.9697 55.7927 50.5033 53.6446C43.4533 53.8099 36.3483 52.9286 29.9041 51.111C25.6135 49.8442 21.8131 48.247 18.6186 46.2091ZM84.1561 53.6446C75.0682 53.6446 66.9166 55.5724 61.4639 58.2712C55.9561 61.0251 53.8631 64.1095 53.8631 66.3126C53.8631 68.5157 55.9561 71.6001 61.4639 74.354C66.9166 77.1079 75.0682 78.9806 84.1561 78.9806C93.244 78.9806 101.396 77.1079 106.848 74.354C112.356 71.6001 114.449 68.5157 114.449 66.3126C114.449 64.1095 112.356 61.0251 106.848 58.2712C101.396 55.5724 93.244 53.6446 84.1561 53.6446ZM18.6186 63.8341C18.4313 71.8755 27.1667 75.1802 32.658 76.8325C36.1279 77.8239 39.9834 78.4849 43.949 78.7603V71.1595C39.1022 70.829 34.3654 70.0028 29.9041 68.736C25.6135 67.4692 21.8131 65.872 18.6186 63.8341ZM150.801 67.8548C150.69 75.9513 159.283 79.2009 164.846 80.8532C174.705 83.7173 187.483 83.7173 197.342 80.8532C204.337 78.8153 211.331 74.9599 211.387 67.8548C210.395 68.4607 209.349 69.0665 208.247 69.6173C200.977 73.2524 191.503 75.2903 181.094 75.2903C170.684 75.2903 161.21 73.2524 153.94 69.6173C152.839 69.0665 151.792 68.4607 150.801 67.8548ZM124.363 70.1681V77.7138C129.54 78.7603 135.324 79.1458 140.887 78.8153V71.2146C135.324 71.4899 129.706 71.1595 124.363 70.1681ZM53.8631 81.404C53.5877 84.7087 55.0748 87.4075 56.8924 89.0048C59.2057 90.9876 62.951 93.0255 67.908 94.4575C77.767 97.2665 90.5451 97.2665 100.404 94.4575C105.361 93.0255 109.106 90.9876 111.42 89.0048C114.119 86.7466 114.449 84.5435 114.449 81.404C113.458 82.0649 112.411 82.6708 111.31 83.2216C104.039 86.8568 94.5658 88.8946 84.1561 88.8946C73.7463 88.8946 64.2729 86.8568 57.0025 83.2216C55.901 82.6708 54.8545 82.0649 53.8631 81.404ZM18.6186 81.4591C18.4313 89.5005 27.1667 92.8052 32.658 94.4575C36.1279 95.4489 39.9834 96.1099 43.949 96.3853V88.7845C39.1022 88.454 34.3654 87.6278 29.9041 86.361C25.6135 85.0942 21.8131 83.497 18.6186 81.4591ZM150.801 85.4798C150.69 93.5763 159.283 96.8259 164.846 98.4782C174.705 101.342 187.483 101.342 197.342 98.4782C204.337 96.4403 211.331 92.5849 211.387 85.4798C208.192 87.5177 204.392 89.115 200.096 90.3818C188.144 93.8517 174.044 93.8517 162.092 90.3818C157.796 89.115 153.995 87.5177 150.801 85.4798ZM124.363 87.7931V95.3388C129.54 96.3853 135.324 96.7708 140.887 96.4403V88.8396C135.324 89.115 129.706 88.7845 124.363 87.7931ZM18.6186 99.0841C18.4313 107.126 27.1667 110.43 32.658 112.083C36.1279 113.074 39.9834 113.735 43.949 114.01V106.409C39.1022 106.079 34.3654 105.253 29.9041 103.986C25.6135 102.719 21.8131 101.122 18.6186 99.0841ZM53.8631 99.0841C53.5877 102.389 55.0748 105.033 56.8924 106.63C59.2057 108.613 62.951 110.651 67.908 112.083C77.767 114.892 90.5451 114.892 100.404 112.083C105.361 110.651 109.106 108.613 111.42 106.63C114.119 104.372 114.449 102.224 114.449 99.0841C111.255 101.122 107.454 102.719 103.158 103.986C91.2061 107.401 77.1061 107.401 65.1541 103.986C60.858 102.719 57.0576 101.122 53.8631 99.0841ZM150.801 103.105C150.69 111.201 159.283 114.451 164.846 116.103C174.705 118.967 187.483 118.967 197.342 116.103C204.337 114.065 211.331 110.21 211.387 103.105C208.192 105.143 204.392 106.74 200.096 108.007C188.144 111.477 174.044 111.477 162.092 108.007C157.796 106.74 153.995 105.143 150.801 103.105ZM124.363 105.418V112.964C129.54 114.01 135.324 114.396 140.887 114.065V106.465C135.324 106.74 129.706 106.409 124.363 105.418ZM53.8631 116.709V117.976C55.4604 118.527 57.0026 119.188 58.4346 119.904C63.3916 122.382 67.6877 125.852 69.8908 130.203C79.4193 132.517 91.2061 132.351 100.404 129.708C105.361 128.276 109.106 126.238 111.42 124.255C114.119 121.997 114.449 119.849 114.449 116.709C111.255 118.747 107.454 120.344 103.158 121.611C91.2061 125.026 77.1061 125.026 65.1541 121.611C60.858 120.344 57.0576 118.747 53.8631 116.709ZM150.801 120.73C150.69 128.826 159.283 132.076 164.846 133.728C174.705 136.592 187.483 136.592 197.342 133.728C204.337 131.69 211.331 127.835 211.387 120.73C208.192 122.768 204.392 124.365 200.096 125.632C188.144 129.102 174.044 129.102 162.092 125.632C157.796 124.365 153.995 122.768 150.801 120.73ZM124.363 123.043V130.589C129.54 131.635 135.324 132.021 140.887 131.69V124.09C135.324 124.365 129.706 124.034 124.363 123.043ZM31.2811 124.145C22.1987 124.145 14.0471 126.072 8.53931 128.771C3.08657 131.525 0.993605 134.609 0.993605 136.813C0.993605 139.016 3.08657 142.1 8.53931 144.854C14.0471 147.608 22.1987 149.481 31.2811 149.481C40.369 149.481 48.5205 147.608 53.9733 144.854C59.4811 142.1 61.574 139.016 61.574 136.813C61.574 134.609 59.4811 131.525 53.9733 128.771C48.5205 126.072 40.369 124.145 31.2811 124.145ZM114.449 134.334C111.255 136.372 107.454 137.969 103.158 139.236C93.244 142.045 81.8979 142.541 71.4881 140.668V148.214C80.7412 150.142 91.7018 149.811 100.404 147.333C107.344 145.295 114.394 141.384 114.449 134.334ZM150.801 138.355C150.635 146.176 158.897 149.536 164.35 151.188C167.434 148.709 170.243 146.837 173.548 145.46C169.582 145.019 165.727 144.303 162.092 143.257C157.796 141.99 153.995 140.393 150.801 138.355ZM211.387 138.355C209.844 139.346 208.137 140.227 206.264 141.054C207.972 141.219 209.679 141.439 211.276 141.715C211.497 140.613 211.387 139.511 211.387 138.355ZM124.363 140.668V148.159C130.367 149.315 135.379 149.591 140.887 149.37V141.715C135.324 141.99 129.706 141.659 124.363 140.668ZM198.719 150.582C189.631 150.582 181.479 152.51 176.026 155.209C170.519 157.963 168.426 161.047 168.426 163.25C168.426 165.453 170.519 168.538 176.026 171.292C181.479 174.045 189.631 175.918 198.719 175.918C207.806 175.918 215.958 174.045 221.411 171.292C226.919 168.538 229.012 165.453 229.012 163.25C229.012 161.047 226.919 157.963 221.411 155.209C215.958 152.51 207.806 150.582 198.719 150.582ZM0.993605 151.904C0.833879 160.056 9.42607 163.305 15.0385 164.958C24.8975 167.767 37.6701 167.767 47.5291 164.958C54.524 162.92 61.519 159.009 61.574 151.904C60.5826 152.565 59.5361 153.171 58.4346 153.722C51.1643 157.357 41.6908 159.395 31.2811 159.395C20.4802 158.513 9.31591 157.412 0.993605 151.904ZM114.449 151.959C111.255 153.997 107.454 155.594 103.158 156.861C93.244 159.67 81.8979 160.166 71.4881 158.293V165.839C80.7412 167.767 91.7018 167.436 100.404 164.958C107.344 162.92 114.394 159.009 114.449 151.959ZM150.801 155.98C150.58 161.653 155.207 164.847 158.401 166.5C158.401 166.5 158.456 166.555 158.512 166.555V159.725C155.647 158.679 153.059 157.412 150.801 155.98ZM0.993605 169.584C0.806339 177.625 9.54173 180.93 15.0385 182.583C24.8975 185.392 37.6701 185.392 47.5291 182.583C54.469 180.545 61.519 176.634 61.574 169.584C58.3795 171.622 54.5791 173.219 50.283 174.486C38.3311 177.901 24.2366 177.901 12.2846 174.486C7.98853 173.219 4.18814 171.622 0.993605 169.584ZM71.4881 175.918V183.409C74.1869 184.015 77.1061 184.4 80.1354 184.62C81.2369 181.701 83.2197 179.168 85.7533 177.02C80.9615 177.13 76.1147 176.744 71.4881 175.918ZM119.406 177.02C110.318 177.02 102.167 178.947 96.7139 181.646C91.2061 184.4 89.1131 187.484 89.1131 189.688C89.1131 191.891 91.2061 194.975 96.7139 197.729C102.167 200.483 110.318 202.356 119.406 202.356C128.494 202.356 136.646 200.483 142.098 197.729C147.606 194.975 149.699 191.891 149.699 189.688C149.699 187.484 147.606 184.4 142.098 181.646C136.646 178.947 128.494 177.02 119.406 177.02ZM168.426 178.342C168.371 186.493 176.797 189.743 182.471 191.395C192.33 194.204 205.108 194.204 214.967 191.395C221.962 189.357 228.956 185.447 229.012 178.342C220.309 183.629 207.146 185.777 198.719 185.832C187.923 184.951 176.742 183.849 168.426 178.342ZM0.993605 187.209C0.806339 195.25 9.54173 198.555 15.0385 200.208C24.8975 203.017 37.6701 203.017 47.5291 200.208C54.469 198.17 61.519 194.259 61.574 187.209C58.3795 189.247 54.5791 190.844 50.283 192.111C38.3311 195.526 24.2366 195.526 12.2846 192.111C7.98853 190.844 4.18814 189.247 0.993605 187.209ZM168.426 196.022C168.315 204.118 176.908 207.368 182.471 209.02C192.33 211.829 205.108 211.829 214.967 209.02C221.906 206.982 228.956 203.072 229.012 196.022C225.817 198.059 222.017 199.657 217.721 200.924C205.769 204.338 191.669 204.338 179.717 200.924C175.421 199.657 171.62 198.059 168.426 196.022ZM89.1131 204.779C88.8377 208.084 90.3248 210.783 92.1424 212.38C94.4557 214.363 98.201 216.4 103.158 217.833C113.017 220.642 125.795 220.642 135.654 217.833C140.611 216.4 144.356 214.363 146.67 212.38C148.983 210.397 149.699 208.69 149.699 207.313V204.779C148.708 205.44 147.661 206.046 146.56 206.597C139.289 210.232 129.816 212.27 119.406 212.27C108.996 212.27 99.5229 210.232 92.2525 206.597C91.151 206.046 90.1045 205.44 89.1131 204.779ZM0.993605 204.834C0.806339 212.875 9.54173 216.18 15.0385 217.833C24.8975 220.642 37.6701 220.642 47.5291 217.833C54.469 215.795 61.519 211.884 61.574 204.834C58.3795 206.872 54.5791 208.469 50.283 209.736C38.3311 213.151 24.2366 213.151 12.2846 209.736C7.98853 208.469 4.18814 206.872 0.993605 204.834ZM168.426 213.647C168.315 221.743 176.908 224.993 182.471 226.645C192.33 229.454 205.108 229.454 214.967 226.645C221.906 224.607 228.956 220.697 229.012 213.647C225.817 215.684 222.017 217.282 217.721 218.549C205.769 221.963 191.669 221.963 179.717 218.549C175.421 217.282 171.62 215.684 168.426 213.647ZM0.993605 222.459C0.806339 230.5 9.54173 233.805 15.0385 235.458C24.8975 238.267 37.6701 238.267 47.5291 235.458C54.469 233.42 61.519 229.509 61.574 222.459C58.3795 224.497 54.5791 226.094 50.283 227.361C38.3311 230.776 24.2366 230.776 12.2846 227.361C7.98853 226.094 4.18814 224.497 0.993605 222.459ZM89.1131 222.459C88.8928 228.132 93.5193 231.327 96.7139 232.979C102.167 235.733 110.318 237.606 119.406 237.606C128.494 237.606 136.646 235.733 142.098 232.979C147.551 229.564 149.699 228.242 149.699 222.459C146.505 224.497 142.704 226.094 138.408 227.361C126.456 230.776 112.356 230.776 100.404 227.361C96.108 226.094 92.3076 224.497 89.1131 222.459ZM168.426 231.272C168.205 236.945 172.832 240.139 176.026 241.792C181.479 244.545 189.631 246.418 198.719 246.418C207.806 246.418 215.958 244.545 221.411 241.792C226.864 238.377 229.012 237.055 229.012 231.272C225.817 233.309 222.017 234.907 217.721 236.174C205.769 239.588 191.669 239.588 179.717 236.174C175.421 234.907 171.62 233.309 168.426 231.272ZM0.993605 240.084C0.751261 245.702 5.33376 248.952 8.53931 250.604C14.0471 253.358 22.1987 255.231 31.2811 255.231C40.369 255.231 48.5205 253.358 53.9733 250.604C59.426 247.189 61.574 245.867 61.574 240.084C58.3795 242.122 54.5791 243.719 50.283 244.986C38.3311 248.401 24.2366 248.401 12.2846 244.986C7.98853 243.719 4.18814 242.122 0.993605 240.084Z" fill="#4378FF" fill-opacity="0.2"/>
</svg>
